<svg width="1232" height="246" viewBox="0 0 1232 246" fill="none" xmlns="http://www.w3.org/2000/svg">
<path d="M12.642 194V48.5455H43.3949V112.679H45.3125L97.6562 48.5455H134.517L80.5398 113.673L135.156 194H98.3665L58.5227 134.199L43.3949 152.665V194H12.642ZM287.673 196.131C276.451 196.131 266.792 193.858 258.695 189.312C250.646 184.72 244.443 178.233 240.087 169.852C235.731 161.424 233.553 151.457 233.553 139.952C233.553 128.73 235.731 118.882 240.087 110.406C244.443 101.931 250.575 95.3258 258.482 90.5909C266.437 85.8561 275.764 83.4886 286.465 83.4886C293.662 83.4886 300.362 84.6487 306.565 86.9688C312.815 89.2415 318.26 92.6742 322.9 97.267C327.587 101.86 331.233 107.636 333.837 114.597C336.442 121.509 337.744 129.606 337.744 138.886V147.196H245.627V128.446H309.263C309.263 124.09 308.317 120.231 306.423 116.869C304.529 113.508 301.901 110.88 298.539 108.986C295.225 107.045 291.366 106.074 286.962 106.074C282.37 106.074 278.298 107.139 274.746 109.27C271.243 111.353 268.496 114.17 266.508 117.722C264.519 121.225 263.501 125.132 263.454 129.44V147.267C263.454 152.665 264.448 157.329 266.437 161.259C268.473 165.188 271.337 168.219 275.031 170.349C278.724 172.48 283.103 173.545 288.17 173.545C291.531 173.545 294.609 173.072 297.403 172.125C300.196 171.178 302.587 169.758 304.576 167.864C306.565 165.97 308.08 163.65 309.121 160.903L337.104 162.75C335.684 169.473 332.772 175.345 328.369 180.364C324.013 185.335 318.378 189.218 311.465 192.011C304.6 194.758 296.669 196.131 287.673 196.131ZM544.255 116.017L516.556 117.722C516.083 115.354 515.065 113.223 513.502 111.33C511.94 109.388 509.88 107.849 507.323 106.713C504.814 105.529 501.807 104.938 498.303 104.938C493.616 104.938 489.662 105.932 486.442 107.92C483.223 109.862 481.613 112.466 481.613 115.733C481.613 118.337 482.655 120.539 484.738 122.338C486.821 124.137 490.396 125.581 495.462 126.67L515.207 130.648C525.813 132.826 533.72 136.33 538.928 141.159C544.137 145.989 546.741 152.333 546.741 160.193C546.741 167.343 544.634 173.616 540.42 179.014C536.253 184.412 530.524 188.626 523.232 191.656C515.988 194.639 507.631 196.131 498.161 196.131C483.72 196.131 472.214 193.124 463.644 187.111C455.121 181.05 450.126 172.812 448.658 162.395L478.417 160.832C479.317 165.236 481.495 168.598 484.951 170.918C488.407 173.19 492.835 174.327 498.232 174.327C503.535 174.327 507.797 173.309 511.016 171.273C514.283 169.189 515.941 166.514 515.988 163.247C515.941 160.501 514.781 158.252 512.508 156.5C510.235 154.701 506.731 153.328 501.996 152.381L483.104 148.616C472.451 146.486 464.52 142.793 459.312 137.537C454.151 132.281 451.57 125.581 451.57 117.438C451.57 110.43 453.464 104.393 457.252 99.3267C461.087 94.2604 466.461 90.3542 473.374 87.608C480.335 84.8617 488.478 83.4886 497.806 83.4886C511.585 83.4886 522.427 86.4006 530.335 92.2244C538.289 98.0483 542.929 105.979 544.255 116.017ZM752.56 116.017L724.861 117.722C724.387 115.354 723.369 113.223 721.807 111.33C720.244 109.388 718.185 107.849 715.628 106.713C713.118 105.529 710.112 104.938 706.608 104.938C701.92 104.938 697.967 105.932 694.747 107.92C691.527 109.862 689.918 112.466 689.918 115.733C689.918 118.337 690.959 120.539 693.043 122.338C695.126 124.137 698.701 125.581 703.767 126.67L723.511 130.648C734.117 132.826 742.025 136.33 747.233 141.159C752.441 145.989 755.045 152.333 755.045 160.193C755.045 167.343 752.938 173.616 748.724 179.014C744.558 184.412 738.829 188.626 731.537 191.656C724.293 194.639 715.936 196.131 706.466 196.131C692.025 196.131 680.519 193.124 671.949 187.111C663.426 181.05 658.431 172.812 656.963 162.395L686.722 160.832C687.621 165.236 689.799 168.598 693.256 170.918C696.712 173.19 701.139 174.327 706.537 174.327C711.84 174.327 716.101 173.309 719.321 171.273C722.588 169.189 724.245 166.514 724.293 163.247C724.245 160.501 723.085 158.252 720.812 156.5C718.54 154.701 715.036 153.328 710.301 152.381L691.409 148.616C680.756 146.486 672.825 142.793 667.616 137.537C662.455 132.281 659.875 125.581 659.875 117.438C659.875 110.43 661.769 104.393 665.557 99.3267C669.392 94.2604 674.766 90.3542 681.679 87.608C688.639 84.8617 696.783 83.4886 706.111 83.4886C719.889 83.4886 730.732 86.4006 738.639 92.2244C746.594 98.0483 751.234 105.979 752.56 116.017ZM922.228 194H870.665V48.5455H922.654C937.285 48.5455 949.879 51.4574 960.438 57.2812C970.997 63.0578 979.117 71.3674 984.799 82.2102C990.528 93.053 993.393 106.027 993.393 121.131C993.393 136.282 990.528 149.303 984.799 160.193C979.117 171.083 970.95 179.44 960.296 185.264C949.69 191.088 937.001 194 922.228 194ZM901.418 167.651H920.95C930.04 167.651 937.687 166.041 943.89 162.821C950.14 159.554 954.827 154.511 957.952 147.693C961.125 140.828 962.711 131.973 962.711 121.131C962.711 110.383 961.125 101.599 957.952 94.7812C954.827 87.9631 950.164 82.9441 943.961 79.7244C937.758 76.5047 930.112 74.8949 921.021 74.8949H901.418V167.651ZM1112.17 194V48.5455H1170.41C1181.11 48.5455 1190.04 50.1316 1197.19 53.304C1204.34 56.4763 1209.71 60.8797 1213.31 66.5142C1216.91 72.1013 1218.71 78.5407 1218.71 85.8324C1218.71 91.5142 1217.57 96.5095 1215.3 100.818C1213.03 105.08 1209.9 108.583 1205.92 111.33C1201.99 114.028 1197.5 115.946 1192.43 117.082V118.503C1197.97 118.74 1203.15 120.302 1207.98 123.19C1212.86 126.079 1216.81 130.127 1219.84 135.335C1222.87 140.496 1224.39 146.652 1224.39 153.801C1224.39 161.519 1222.47 168.408 1218.64 174.469C1214.85 180.482 1209.24 185.241 1201.8 188.744C1194.37 192.248 1185.21 194 1174.32 194H1112.17ZM1142.93 168.858H1168C1176.57 168.858 1182.82 167.224 1186.75 163.957C1190.68 160.643 1192.64 156.24 1192.64 150.747C1192.64 146.723 1191.67 143.171 1189.73 140.094C1187.79 137.016 1185.02 134.601 1181.42 132.849C1177.87 131.098 1173.63 130.222 1168.71 130.222H1142.93V168.858ZM1142.93 109.412H1165.72C1169.94 109.412 1173.68 108.678 1176.95 107.21C1180.26 105.695 1182.86 103.564 1184.76 100.818C1186.7 98.072 1187.67 94.7812 1187.67 90.946C1187.67 85.6903 1185.8 81.4527 1182.06 78.233C1178.37 75.0133 1173.11 73.4034 1166.29 73.4034H1142.93V109.412Z" fill="black"/>
<path d="M12.642 194V48.5455H43.3949V112.679H45.3125L97.6562 48.5455H134.517L80.5398 113.673L135.156 194H98.3665L58.5227 134.199L43.3949 152.665V194H12.642ZM287.673 196.131C276.451 196.131 266.792 193.858 258.695 189.312C250.646 184.72 244.443 178.233 240.087 169.852C235.731 161.424 233.553 151.457 233.553 139.952C233.553 128.73 235.731 118.882 240.087 110.406C244.443 101.931 250.575 95.3258 258.482 90.5909C266.437 85.8561 275.764 83.4886 286.465 83.4886C293.662 83.4886 300.362 84.6487 306.565 86.9688C312.815 89.2415 318.26 92.6742 322.9 97.267C327.587 101.86 331.233 107.636 333.837 114.597C336.442 121.509 337.744 129.606 337.744 138.886V147.196H245.627V128.446H309.263C309.263 124.09 308.317 120.231 306.423 116.869C304.529 113.508 301.901 110.88 298.539 108.986C295.225 107.045 291.366 106.074 286.962 106.074C282.37 106.074 278.298 107.139 274.746 109.27C271.243 111.353 268.496 114.17 266.508 117.722C264.519 121.225 263.501 125.132 263.454 129.44V147.267C263.454 152.665 264.448 157.329 266.437 161.259C268.473 165.188 271.337 168.219 275.031 170.349C278.724 172.48 283.103 173.545 288.17 173.545C291.531 173.545 294.609 173.072 297.403 172.125C300.196 171.178 302.587 169.758 304.576 167.864C306.565 165.97 308.08 163.65 309.121 160.903L337.104 162.75C335.684 169.473 332.772 175.345 328.369 180.364C324.013 185.335 318.378 189.218 311.465 192.011C304.6 194.758 296.669 196.131 287.673 196.131ZM544.255 116.017L516.556 117.722C516.083 115.354 515.065 113.223 513.502 111.33C511.94 109.388 509.88 107.849 507.323 106.713C504.814 105.529 501.807 104.938 498.303 104.938C493.616 104.938 489.662 105.932 486.442 107.92C483.223 109.862 481.613 112.466 481.613 115.733C481.613 118.337 482.655 120.539 484.738 122.338C486.821 124.137 490.396 125.581 495.462 126.67L515.207 130.648C525.813 132.826 533.72 136.33 538.928 141.159C544.137 145.989 546.741 152.333 546.741 160.193C546.741 167.343 544.634 173.616 540.42 179.014C536.253 184.412 530.524 188.626 523.232 191.656C515.988 194.639 507.631 196.131 498.161 196.131C483.72 196.131 472.214 193.124 463.644 187.111C455.121 181.05 450.126 172.812 448.658 162.395L478.417 160.832C479.317 165.236 481.495 168.598 484.951 170.918C488.407 173.19 492.835 174.327 498.232 174.327C503.535 174.327 507.797 173.309 511.016 171.273C514.283 169.189 515.941 166.514 515.988 163.247C515.941 160.501 514.781 158.252 512.508 156.5C510.235 154.701 506.731 153.328 501.996 152.381L483.104 148.616C472.451 146.486 464.52 142.793 459.312 137.537C454.151 132.281 451.57 125.581 451.57 117.438C451.57 110.43 453.464 104.393 457.252 99.3267C461.087 94.2604 466.461 90.3542 473.374 87.608C480.335 84.8617 488.478 83.4886 497.806 83.4886C511.585 83.4886 522.427 86.4006 530.335 92.2244C538.289 98.0483 542.929 105.979 544.255 116.017ZM752.56 116.017L724.861 117.722C724.387 115.354 723.369 113.223 721.807 111.33C720.244 109.388 718.185 107.849 715.628 106.713C713.118 105.529 710.112 104.938 706.608 104.938C701.92 104.938 697.967 105.932 694.747 107.92C691.527 109.862 689.918 112.466 689.918 115.733C689.918 118.337 690.959 120.539 693.043 122.338C695.126 124.137 698.701 125.581 703.767 126.67L723.511 130.648C734.117 132.826 742.025 136.33 747.233 141.159C752.441 145.989 755.045 152.333 755.045 160.193C755.045 167.343 752.938 173.616 748.724 179.014C744.558 184.412 738.829 188.626 731.537 191.656C724.293 194.639 715.936 196.131 706.466 196.131C692.025 196.131 680.519 193.124 671.949 187.111C663.426 181.05 658.431 172.812 656.963 162.395L686.722 160.832C687.621 165.236 689.799 168.598 693.256 170.918C696.712 173.19 701.139 174.327 706.537 174.327C711.84 174.327 716.101 173.309 719.321 171.273C722.588 169.189 724.245 166.514 724.293 163.247C724.245 160.501 723.085 158.252 720.812 156.5C718.54 154.701 715.036 153.328 710.301 152.381L691.409 148.616C680.756 146.486 672.825 142.793 667.616 137.537C662.455 132.281 659.875 125.581 659.875 117.438C659.875 110.43 661.769 104.393 665.557 99.3267C669.392 94.2604 674.766 90.3542 681.679 87.608C688.639 84.8617 696.783 83.4886 706.111 83.4886C719.889 83.4886 730.732 86.4006 738.639 92.2244C746.594 98.0483 751.234 105.979 752.56 116.017ZM922.228 194H870.665V48.5455H922.654C937.285 48.5455 949.879 51.4574 960.438 57.2812C970.997 63.0578 979.117 71.3674 984.799 82.2102C990.528 93.053 993.393 106.027 993.393 121.131C993.393 136.282 990.528 149.303 984.799 160.193C979.117 171.083 970.95 179.44 960.296 185.264C949.69 191.088 937.001 194 922.228 194ZM901.418 167.651H920.95C930.04 167.651 937.687 166.041 943.89 162.821C950.14 159.554 954.827 154.511 957.952 147.693C961.125 140.828 962.711 131.973 962.711 121.131C962.711 110.383 961.125 101.599 957.952 94.7812C954.827 87.9631 950.164 82.9441 943.961 79.7244C937.758 76.5047 930.112 74.8949 921.021 74.8949H901.418V167.651ZM1112.17 194V48.5455H1170.41C1181.11 48.5455 1190.04 50.1316 1197.19 53.304C1204.34 56.4763 1209.71 60.8797 1213.31 66.5142C1216.91 72.1013 1218.71 78.5407 1218.71 85.8324C1218.71 91.5142 1217.57 96.5095 1215.3 100.818C1213.03 105.08 1209.9 108.583 1205.92 111.33C1201.99 114.028 1197.5 115.946 1192.43 117.082V118.503C1197.97 118.74 1203.15 120.302 1207.98 123.19C1212.86 126.079 1216.81 130.127 1219.84 135.335C1222.87 140.496 1224.39 146.652 1224.39 153.801C1224.39 161.519 1222.47 168.408 1218.64 174.469C1214.85 180.482 1209.24 185.241 1201.8 188.744C1194.37 192.248 1185.21 194 1174.32 194H1112.17ZM1142.93 168.858H1168C1176.57 168.858 1182.82 167.224 1186.75 163.957C1190.68 160.643 1192.64 156.24 1192.64 150.747C1192.64 146.723 1191.67 143.171 1189.73 140.094C1187.79 137.016 1185.02 134.601 1181.42 132.849C1177.87 131.098 1173.63 130.222 1168.71 130.222H1142.93V168.858ZM1142.93 109.412H1165.72C1169.94 109.412 1173.68 108.678 1176.95 107.21C1180.26 105.695 1182.86 103.564 1184.76 100.818C1186.7 98.072 1187.67 94.7812 1187.67 90.946C1187.67 85.6903 1185.8 81.4527 1182.06 78.233C1178.37 75.0133 1173.11 73.4034 1166.29 73.4034H1142.93V109.412Z" fill="black"/>
<path d="M12.642 194V48.5455H43.3949V112.679H45.3125L97.6562 48.5455H134.517L80.5398 113.673L135.156 194H98.3665L58.5227 134.199L43.3949 152.665V194H12.642ZM287.673 196.131C276.451 196.131 266.792 193.858 258.695 189.312C250.646 184.72 244.443 178.233 240.087 169.852C235.731 161.424 233.553 151.457 233.553 139.952C233.553 128.73 235.731 118.882 240.087 110.406C244.443 101.931 250.575 95.3258 258.482 90.5909C266.437 85.8561 275.764 83.4886 286.465 83.4886C293.662 83.4886 300.362 84.6487 306.565 86.9688C312.815 89.2415 318.26 92.6742 322.9 97.267C327.587 101.86 331.233 107.636 333.837 114.597C336.442 121.509 337.744 129.606 337.744 138.886V147.196H245.627V128.446H309.263C309.263 124.09 308.317 120.231 306.423 116.869C304.529 113.508 301.901 110.88 298.539 108.986C295.225 107.045 291.366 106.074 286.962 106.074C282.37 106.074 278.298 107.139 274.746 109.27C271.243 111.353 268.496 114.17 266.508 117.722C264.519 121.225 263.501 125.132 263.454 129.44V147.267C263.454 152.665 264.448 157.329 266.437 161.259C268.473 165.188 271.337 168.219 275.031 170.349C278.724 172.48 283.103 173.545 288.17 173.545C291.531 173.545 294.609 173.072 297.403 172.125C300.196 171.178 302.587 169.758 304.576 167.864C306.565 165.97 308.08 163.65 309.121 160.903L337.104 162.75C335.684 169.473 332.772 175.345 328.369 180.364C324.013 185.335 318.378 189.218 311.465 192.011C304.6 194.758 296.669 196.131 287.673 196.131ZM544.255 116.017L516.556 117.722C516.083 115.354 515.065 113.223 513.502 111.33C511.94 109.388 509.88 107.849 507.323 106.713C504.814 105.529 501.807 104.938 498.303 104.938C493.616 104.938 489.662 105.932 486.442 107.92C483.223 109.862 481.613 112.466 481.613 115.733C481.613 118.337 482.655 120.539 484.738 122.338C486.821 124.137 490.396 125.581 495.462 126.67L515.207 130.648C525.813 132.826 533.72 136.33 538.928 141.159C544.137 145.989 546.741 152.333 546.741 160.193C546.741 167.343 544.634 173.616 540.42 179.014C536.253 184.412 530.524 188.626 523.232 191.656C515.988 194.639 507.631 196.131 498.161 196.131C483.72 196.131 472.214 193.124 463.644 187.111C455.121 181.05 450.126 172.812 448.658 162.395L478.417 160.832C479.317 165.236 481.495 168.598 484.951 170.918C488.407 173.19 492.835 174.327 498.232 174.327C503.535 174.327 507.797 173.309 511.016 171.273C514.283 169.189 515.941 166.514 515.988 163.247C515.941 160.501 514.781 158.252 512.508 156.5C510.235 154.701 506.731 153.328 501.996 152.381L483.104 148.616C472.451 146.486 464.52 142.793 459.312 137.537C454.151 132.281 451.57 125.581 451.57 117.438C451.57 110.43 453.464 104.393 457.252 99.3267C461.087 94.2604 466.461 90.3542 473.374 87.608C480.335 84.8617 488.478 83.4886 497.806 83.4886C511.585 83.4886 522.427 86.4006 530.335 92.2244C538.289 98.0483 542.929 105.979 544.255 116.017ZM752.56 116.017L724.861 117.722C724.387 115.354 723.369 113.223 721.807 111.33C720.244 109.388 718.185 107.849 715.628 106.713C713.118 105.529 710.112 104.938 706.608 104.938C701.92 104.938 697.967 105.932 694.747 107.92C691.527 109.862 689.918 112.466 689.918 115.733C689.918 118.337 690.959 120.539 693.043 122.338C695.126 124.137 698.701 125.581 703.767 126.67L723.511 130.648C734.117 132.826 742.025 136.33 747.233 141.159C752.441 145.989 755.045 152.333 755.045 160.193C755.045 167.343 752.938 173.616 748.724 179.014C744.558 184.412 738.829 188.626 731.537 191.656C724.293 194.639 715.936 196.131 706.466 196.131C692.025 196.131 680.519 193.124 671.949 187.111C663.426 181.05 658.431 172.812 656.963 162.395L686.722 160.832C687.621 165.236 689.799 168.598 693.256 170.918C696.712 173.19 701.139 174.327 706.537 174.327C711.84 174.327 716.101 173.309 719.321 171.273C722.588 169.189 724.245 166.514 724.293 163.247C724.245 160.501 723.085 158.252 720.812 156.5C718.54 154.701 715.036 153.328 710.301 152.381L691.409 148.616C680.756 146.486 672.825 142.793 667.616 137.537C662.455 132.281 659.875 125.581 659.875 117.438C659.875 110.43 661.769 104.393 665.557 99.3267C669.392 94.2604 674.766 90.3542 681.679 87.608C688.639 84.8617 696.783 83.4886 706.111 83.4886C719.889 83.4886 730.732 86.4006 738.639 92.2244C746.594 98.0483 751.234 105.979 752.56 116.017ZM922.228 194H870.665V48.5455H922.654C937.285 48.5455 949.879 51.4574 960.438 57.2812C970.997 63.0578 979.117 71.3674 984.799 82.2102C990.528 93.053 993.393 106.027 993.393 121.131C993.393 136.282 990.528 149.303 984.799 160.193C979.117 171.083 970.95 179.44 960.296 185.264C949.69 191.088 937.001 194 922.228 194ZM901.418 167.651H920.95C930.04 167.651 937.687 166.041 943.89 162.821C950.14 159.554 954.827 154.511 957.952 147.693C961.125 140.828 962.711 131.973 962.711 121.131C962.711 110.383 961.125 101.599 957.952 94.7812C954.827 87.9631 950.164 82.9441 943.961 79.7244C937.758 76.5047 930.112 74.8949 921.021 74.8949H901.418V167.651ZM1112.17 194V48.5455H1170.41C1181.11 48.5455 1190.04 50.1316 1197.19 53.304C1204.34 56.4763 1209.71 60.8797 1213.31 66.5142C1216.91 72.1013 1218.71 78.5407 1218.71 85.8324C1218.71 91.5142 1217.57 96.5095 1215.3 100.818C1213.03 105.08 1209.9 108.583 1205.92 111.33C1201.99 114.028 1197.5 115.946 1192.43 117.082V118.503C1197.97 118.74 1203.15 120.302 1207.98 123.19C1212.86 126.079 1216.81 130.127 1219.84 135.335C1222.87 140.496 1224.39 146.652 1224.39 153.801C1224.39 161.519 1222.47 168.408 1218.64 174.469C1214.85 180.482 1209.24 185.241 1201.8 188.744C1194.37 192.248 1185.21 194 1174.32 194H1112.17ZM1142.93 168.858H1168C1176.57 168.858 1182.82 167.224 1186.75 163.957C1190.68 160.643 1192.64 156.24 1192.64 150.747C1192.64 146.723 1191.67 143.171 1189.73 140.094C1187.79 137.016 1185.02 134.601 1181.42 132.849C1177.87 131.098 1173.63 130.222 1168.71 130.222H1142.93V168.858ZM1142.93 109.412H1165.72C1169.94 109.412 1173.68 108.678 1176.95 107.21C1180.26 105.695 1182.86 103.564 1184.76 100.818C1186.7 98.072 1187.67 94.7812 1187.67 90.946C1187.67 85.6903 1185.8 81.4527 1182.06 78.233C1178.37 75.0133 1173.11 73.4034 1166.29 73.4034H1142.93V109.412Z" fill="#F1F1F2"/>
<path d="M337.557 197.36C336.339 197.36 335.253 197.149 334.3 196.727C333.348 196.296 332.594 195.662 332.038 194.825C331.491 193.98 331.218 192.927 331.218 191.668C331.218 190.607 331.413 189.717 331.802 188.996C332.192 188.275 332.722 187.695 333.393 187.256C334.064 186.817 334.827 186.485 335.68 186.261C336.542 186.038 337.445 185.88 338.39 185.789C339.5 185.673 340.395 185.565 341.074 185.466C341.754 185.358 342.247 185.201 342.553 184.994C342.86 184.786 343.013 184.48 343.013 184.074V183.999C343.013 183.212 342.765 182.603 342.267 182.172C341.779 181.741 341.083 181.526 340.179 181.526C339.226 181.526 338.468 181.737 337.905 182.16C337.341 182.574 336.969 183.096 336.786 183.726L331.889 183.328C332.138 182.168 332.627 181.165 333.356 180.32C334.085 179.467 335.025 178.812 336.177 178.357C337.337 177.893 338.68 177.661 340.204 177.661C341.265 177.661 342.28 177.785 343.249 178.033C344.227 178.282 345.093 178.667 345.847 179.189C346.609 179.711 347.21 180.382 347.649 181.203C348.088 182.015 348.308 182.988 348.308 184.124V197H343.287V194.353H343.137C342.831 194.949 342.421 195.475 341.907 195.931C341.393 196.379 340.776 196.731 340.055 196.988C339.334 197.236 338.501 197.36 337.557 197.36ZM339.073 193.706C339.852 193.706 340.54 193.553 341.136 193.246C341.733 192.932 342.201 192.509 342.541 191.979C342.881 191.448 343.05 190.848 343.05 190.176V188.151C342.885 188.258 342.657 188.358 342.367 188.449C342.085 188.532 341.766 188.61 341.41 188.685C341.054 188.751 340.697 188.813 340.341 188.871C339.985 188.921 339.661 188.967 339.371 189.008C338.75 189.099 338.207 189.244 337.743 189.443C337.279 189.642 336.919 189.911 336.662 190.251C336.405 190.583 336.277 190.997 336.277 191.494C336.277 192.215 336.538 192.766 337.06 193.147C337.59 193.52 338.261 193.706 339.073 193.706ZM371.8 183.353L366.953 183.651C366.87 183.237 366.692 182.864 366.418 182.533C366.145 182.193 365.784 181.924 365.337 181.725C364.898 181.518 364.372 181.414 363.758 181.414C362.938 181.414 362.246 181.588 361.683 181.936C361.119 182.276 360.838 182.732 360.838 183.303C360.838 183.759 361.02 184.144 361.384 184.459C361.749 184.774 362.375 185.027 363.261 185.217L366.716 185.913C368.573 186.295 369.956 186.908 370.868 187.753C371.779 188.598 372.235 189.708 372.235 191.084C372.235 192.335 371.866 193.433 371.129 194.377C370.4 195.322 369.397 196.06 368.121 196.59C366.853 197.112 365.391 197.373 363.733 197.373C361.206 197.373 359.193 196.847 357.693 195.794C356.202 194.734 355.327 193.292 355.07 191.469L360.278 191.196C360.436 191.966 360.817 192.555 361.422 192.961C362.027 193.358 362.801 193.557 363.746 193.557C364.674 193.557 365.42 193.379 365.983 193.023C366.555 192.658 366.845 192.19 366.853 191.618C366.845 191.138 366.642 190.744 366.244 190.438C365.846 190.123 365.233 189.882 364.405 189.717L361.099 189.058C359.234 188.685 357.846 188.039 356.935 187.119C356.032 186.199 355.58 185.027 355.58 183.602C355.58 182.375 355.912 181.319 356.574 180.432C357.246 179.546 358.186 178.862 359.396 178.381C360.614 177.901 362.039 177.661 363.671 177.661C366.083 177.661 367.98 178.17 369.364 179.189C370.756 180.208 371.568 181.596 371.8 183.353ZM382.338 204.159C381.667 204.159 381.037 204.105 380.449 203.998C379.869 203.898 379.388 203.77 379.007 203.612L380.2 199.66C380.821 199.85 381.381 199.954 381.878 199.971C382.383 199.987 382.818 199.871 383.183 199.623C383.556 199.374 383.858 198.951 384.09 198.355L384.401 197.547L377.553 177.909H383.121L387.073 191.929H387.272L391.262 177.909H396.867L389.447 199.063C389.091 200.091 388.606 200.986 387.993 201.748C387.388 202.518 386.622 203.111 385.694 203.525C384.766 203.948 383.647 204.159 382.338 204.159Z" fill="#F1F1F2"/>
<path d="M762.739 197.373C760.808 197.373 759.138 196.963 757.73 196.142C756.329 195.314 755.248 194.162 754.486 192.687C753.723 191.204 753.342 189.485 753.342 187.529C753.342 185.557 753.723 183.834 754.486 182.359C755.248 180.875 756.329 179.724 757.73 178.903C759.138 178.075 760.808 177.661 762.739 177.661C764.669 177.661 766.335 178.075 767.735 178.903C769.144 179.724 770.229 180.875 770.991 182.359C771.754 183.834 772.135 185.557 772.135 187.529C772.135 189.485 771.754 191.204 770.991 192.687C770.229 194.162 769.144 195.314 767.735 196.142C766.335 196.963 764.669 197.373 762.739 197.373ZM762.763 193.271C763.642 193.271 764.375 193.023 764.963 192.526C765.552 192.02 765.995 191.332 766.293 190.462C766.6 189.592 766.753 188.602 766.753 187.492C766.753 186.382 766.6 185.391 766.293 184.521C765.995 183.651 765.552 182.964 764.963 182.458C764.375 181.953 763.642 181.7 762.763 181.7C761.877 181.7 761.131 181.953 760.526 182.458C759.93 182.964 759.478 183.651 759.172 184.521C758.873 185.391 758.724 186.382 758.724 187.492C758.724 188.602 758.873 189.592 759.172 190.462C759.478 191.332 759.93 192.02 760.526 192.526C761.131 193.023 761.877 193.271 762.763 193.271ZM787.703 197.373C785.748 197.373 784.066 196.959 782.657 196.13C781.257 195.293 780.18 194.133 779.426 192.65C778.68 191.167 778.307 189.46 778.307 187.529C778.307 185.574 778.684 183.858 779.438 182.384C780.201 180.9 781.282 179.744 782.682 178.916C784.083 178.079 785.748 177.661 787.679 177.661C789.344 177.661 790.802 177.963 792.054 178.568C793.305 179.173 794.295 180.022 795.024 181.116C795.753 182.21 796.155 183.494 796.23 184.969H791.233C791.092 184.016 790.72 183.249 790.115 182.669C789.518 182.081 788.735 181.787 787.766 181.787C786.945 181.787 786.229 182.011 785.615 182.458C785.011 182.897 784.538 183.539 784.199 184.385C783.859 185.23 783.689 186.253 783.689 187.455C783.689 188.673 783.855 189.708 784.186 190.562C784.526 191.415 785.002 192.066 785.615 192.513C786.229 192.961 786.945 193.184 787.766 193.184C788.371 193.184 788.913 193.06 789.394 192.811C789.883 192.563 790.285 192.202 790.599 191.73C790.923 191.25 791.134 190.674 791.233 190.002H796.23C796.147 191.461 795.749 192.745 795.037 193.855C794.332 194.958 793.359 195.819 792.116 196.441C790.873 197.062 789.402 197.373 787.703 197.373ZM807.917 191.506L807.93 185.155H808.7L814.815 177.909H820.893L812.678 187.504H811.422L807.917 191.506ZM803.12 197V171.545H808.415V197H803.12ZM815.052 197L809.434 188.685L812.964 184.944L821.254 197H815.052ZM834.905 197.373C832.941 197.373 831.251 196.975 829.834 196.18C828.425 195.376 827.34 194.241 826.578 192.774C825.815 191.299 825.434 189.555 825.434 187.542C825.434 185.578 825.815 183.854 826.578 182.371C827.34 180.888 828.413 179.732 829.797 178.903C831.189 178.075 832.821 177.661 834.694 177.661C835.953 177.661 837.126 177.864 838.211 178.27C839.305 178.667 840.258 179.268 841.07 180.072C841.89 180.875 842.528 181.886 842.984 183.104C843.44 184.314 843.667 185.731 843.667 187.355V188.809H827.547V185.528H838.683C838.683 184.766 838.518 184.09 838.186 183.502C837.855 182.914 837.395 182.454 836.807 182.123C836.227 181.783 835.551 181.613 834.781 181.613C833.977 181.613 833.264 181.799 832.643 182.172C832.03 182.537 831.549 183.03 831.201 183.651C830.853 184.264 830.675 184.948 830.667 185.702V188.822C830.667 189.766 830.841 190.583 831.189 191.27C831.545 191.958 832.046 192.488 832.693 192.861C833.339 193.234 834.105 193.42 834.992 193.42C835.58 193.42 836.119 193.338 836.608 193.172C837.097 193.006 837.515 192.758 837.863 192.426C838.211 192.095 838.476 191.689 838.659 191.208L843.556 191.531C843.307 192.708 842.797 193.735 842.027 194.614C841.265 195.484 840.278 196.163 839.069 196.652C837.867 197.133 836.479 197.373 834.905 197.373ZM860.777 177.909V181.886H849.28V177.909H860.777ZM851.89 173.335H857.185V191.134C857.185 191.622 857.26 192.004 857.409 192.277C857.558 192.542 857.765 192.729 858.03 192.836C858.304 192.944 858.619 192.998 858.975 192.998C859.224 192.998 859.472 192.977 859.721 192.936C859.969 192.886 860.16 192.849 860.292 192.824L861.125 196.764C860.86 196.847 860.487 196.942 860.007 197.05C859.526 197.166 858.942 197.236 858.254 197.261C856.978 197.311 855.859 197.141 854.898 196.751C853.945 196.362 853.204 195.757 852.673 194.937C852.143 194.116 851.882 193.081 851.89 191.83V173.335Z" fill="#F1F1F2"/>
</svg>
