<svg width="933" height="246" viewBox="0 0 933 246" fill="none" xmlns="http://www.w3.org/2000/svg">
<path d="M182.642 194V48.5455H213.395V112.679H215.312L267.656 48.5455H304.517L250.54 113.673L305.156 194H268.366L228.523 134.199L213.395 152.665V194H182.642ZM361.673 196.131C350.451 196.131 340.792 193.858 332.695 189.312C324.646 184.72 318.443 178.233 314.087 169.852C309.731 161.424 307.553 151.457 307.553 139.952C307.553 128.73 309.731 118.882 314.087 110.406C318.443 101.931 324.575 95.3258 332.482 90.5909C340.437 85.8561 349.764 83.4886 360.465 83.4886C367.662 83.4886 374.362 84.6487 380.565 86.9688C386.815 89.2415 392.26 92.6742 396.9 97.267C401.587 101.86 405.233 107.636 407.837 114.597C410.442 121.509 411.744 129.606 411.744 138.886V147.196H319.627V128.446H383.263C383.263 124.09 382.317 120.231 380.423 116.869C378.529 113.508 375.901 110.88 372.539 108.986C369.225 107.045 365.366 106.074 360.962 106.074C356.37 106.074 352.298 107.139 348.746 109.27C345.243 111.353 342.496 114.17 340.508 117.722C338.519 121.225 337.501 125.132 337.454 129.44V147.267C337.454 152.665 338.448 157.329 340.437 161.259C342.473 165.188 345.337 168.219 349.031 170.349C352.724 172.48 357.103 173.545 362.17 173.545C365.531 173.545 368.609 173.072 371.403 172.125C374.196 171.178 376.587 169.758 378.576 167.864C380.565 165.97 382.08 163.65 383.121 160.903L411.104 162.75C409.684 169.473 406.772 175.345 402.369 180.364C398.013 185.335 392.378 189.218 385.465 192.011C378.6 194.758 370.669 196.131 361.673 196.131ZM522.255 116.017L494.556 117.722C494.083 115.354 493.065 113.223 491.502 111.33C489.94 109.388 487.88 107.849 485.323 106.713C482.814 105.529 479.807 104.938 476.303 104.938C471.616 104.938 467.662 105.932 464.442 107.92C461.223 109.862 459.613 112.466 459.613 115.733C459.613 118.337 460.655 120.539 462.738 122.338C464.821 124.137 468.396 125.581 473.462 126.67L493.207 130.648C503.813 132.826 511.72 136.33 516.928 141.159C522.137 145.989 524.741 152.333 524.741 160.193C524.741 167.343 522.634 173.616 518.42 179.014C514.253 184.412 508.524 188.626 501.232 191.656C493.988 194.639 485.631 196.131 476.161 196.131C461.72 196.131 450.214 193.124 441.644 187.111C433.121 181.05 428.126 172.812 426.658 162.395L456.417 160.832C457.317 165.236 459.495 168.598 462.951 170.918C466.407 173.19 470.835 174.327 476.232 174.327C481.535 174.327 485.797 173.309 489.016 171.273C492.283 169.189 493.941 166.514 493.988 163.247C493.941 160.501 492.781 158.252 490.508 156.5C488.235 154.701 484.731 153.328 479.996 152.381L461.104 148.616C450.451 146.486 442.52 142.793 437.312 137.537C432.151 132.281 429.57 125.581 429.57 117.438C429.57 110.43 431.464 104.393 435.252 99.3267C439.087 94.2604 444.461 90.3542 451.374 87.608C458.335 84.8617 466.478 83.4886 475.806 83.4886C489.585 83.4886 500.427 86.4006 508.335 92.2244C516.289 98.0483 520.929 105.979 522.255 116.017ZM634.56 116.017L606.861 117.722C606.387 115.354 605.369 113.223 603.807 111.33C602.244 109.388 600.185 107.849 597.628 106.713C595.118 105.529 592.112 104.938 588.608 104.938C583.92 104.938 579.967 105.932 576.747 107.92C573.527 109.862 571.918 112.466 571.918 115.733C571.918 118.337 572.959 120.539 575.043 122.338C577.126 124.137 580.701 125.581 585.767 126.67L605.511 130.648C616.117 132.826 624.025 136.33 629.233 141.159C634.441 145.989 637.045 152.333 637.045 160.193C637.045 167.343 634.938 173.616 630.724 179.014C626.558 184.412 620.829 188.626 613.537 191.656C606.293 194.639 597.936 196.131 588.466 196.131C574.025 196.131 562.519 193.124 553.949 187.111C545.426 181.05 540.431 172.812 538.963 162.395L568.722 160.832C569.621 165.236 571.799 168.598 575.256 170.918C578.712 173.19 583.139 174.327 588.537 174.327C593.84 174.327 598.101 173.309 601.321 171.273C604.588 169.189 606.245 166.514 606.293 163.247C606.245 160.501 605.085 158.252 602.812 156.5C600.54 154.701 597.036 153.328 592.301 152.381L573.409 148.616C562.756 146.486 554.825 142.793 549.616 137.537C544.455 132.281 541.875 125.581 541.875 117.438C541.875 110.43 543.769 104.393 547.557 99.3267C551.392 94.2604 556.766 90.3542 563.679 87.608C570.639 84.8617 578.783 83.4886 588.111 83.4886C601.889 83.4886 612.732 86.4006 620.639 92.2244C628.594 98.0483 633.234 105.979 634.56 116.017ZM708.228 194H656.665V48.5455H708.654C723.285 48.5455 735.879 51.4574 746.438 57.2812C756.997 63.0578 765.117 71.3674 770.799 82.2102C776.528 93.053 779.393 106.027 779.393 121.131C779.393 136.282 776.528 149.303 770.799 160.193C765.117 171.083 756.95 179.44 746.296 185.264C735.69 191.088 723.001 194 708.228 194ZM687.418 167.651H706.95C716.04 167.651 723.687 166.041 729.89 162.821C736.14 159.554 740.827 154.511 743.952 147.693C747.125 140.828 748.711 131.973 748.711 121.131C748.711 110.383 747.125 101.599 743.952 94.7812C740.827 87.9631 736.164 82.9441 729.961 79.7244C723.758 76.5047 716.112 74.8949 707.021 74.8949H687.418V167.651ZM802.173 194V48.5455H860.412C871.113 48.5455 880.038 50.1316 887.188 53.304C894.337 56.4763 899.711 60.8797 903.31 66.5142C906.908 72.1013 908.707 78.5407 908.707 85.8324C908.707 91.5142 907.571 96.5095 905.298 100.818C903.026 105.08 899.901 108.583 895.923 111.33C891.993 114.028 887.495 115.946 882.429 117.082V118.503C887.969 118.74 893.153 120.302 897.983 123.19C902.86 126.079 906.813 130.127 909.844 135.335C912.874 140.496 914.389 146.652 914.389 153.801C914.389 161.519 912.472 168.408 908.636 174.469C904.848 180.482 899.238 185.241 891.804 188.744C884.37 192.248 875.208 194 864.318 194H802.173ZM832.926 168.858H857.997C866.567 168.858 872.817 167.224 876.747 163.957C880.677 160.643 882.642 156.24 882.642 150.747C882.642 146.723 881.671 143.171 879.73 140.094C877.789 137.016 875.019 134.601 871.42 132.849C867.869 131.098 863.632 130.222 858.707 130.222H832.926V168.858ZM832.926 109.412H855.724C859.938 109.412 863.679 108.678 866.946 107.21C870.26 105.695 872.865 103.564 874.759 100.818C876.7 98.072 877.67 94.7812 877.67 90.946C877.67 85.6903 875.8 81.4527 872.06 78.233C868.366 75.0133 863.111 73.4034 856.293 73.4034H832.926V109.412Z" fill="white"/>
<path d="M182.642 194V48.5455H213.395V112.679H215.312L267.656 48.5455H304.517L250.54 113.673L305.156 194H268.366L228.523 134.199L213.395 152.665V194H182.642ZM361.673 196.131C350.451 196.131 340.792 193.858 332.695 189.312C324.646 184.72 318.443 178.233 314.087 169.852C309.731 161.424 307.553 151.457 307.553 139.952C307.553 128.73 309.731 118.882 314.087 110.406C318.443 101.931 324.575 95.3258 332.482 90.5909C340.437 85.8561 349.764 83.4886 360.465 83.4886C367.662 83.4886 374.362 84.6487 380.565 86.9688C386.815 89.2415 392.26 92.6742 396.9 97.267C401.587 101.86 405.233 107.636 407.837 114.597C410.442 121.509 411.744 129.606 411.744 138.886V147.196H319.627V128.446H383.263C383.263 124.09 382.317 120.231 380.423 116.869C378.529 113.508 375.901 110.88 372.539 108.986C369.225 107.045 365.366 106.074 360.962 106.074C356.37 106.074 352.298 107.139 348.746 109.27C345.243 111.353 342.496 114.17 340.508 117.722C338.519 121.225 337.501 125.132 337.454 129.44V147.267C337.454 152.665 338.448 157.329 340.437 161.259C342.473 165.188 345.337 168.219 349.031 170.349C352.724 172.48 357.103 173.545 362.17 173.545C365.531 173.545 368.609 173.072 371.403 172.125C374.196 171.178 376.587 169.758 378.576 167.864C380.565 165.97 382.08 163.65 383.121 160.903L411.104 162.75C409.684 169.473 406.772 175.345 402.369 180.364C398.013 185.335 392.378 189.218 385.465 192.011C378.6 194.758 370.669 196.131 361.673 196.131ZM522.255 116.017L494.556 117.722C494.083 115.354 493.065 113.223 491.502 111.33C489.94 109.388 487.88 107.849 485.323 106.713C482.814 105.529 479.807 104.938 476.303 104.938C471.616 104.938 467.662 105.932 464.442 107.92C461.223 109.862 459.613 112.466 459.613 115.733C459.613 118.337 460.655 120.539 462.738 122.338C464.821 124.137 468.396 125.581 473.462 126.67L493.207 130.648C503.813 132.826 511.72 136.33 516.928 141.159C522.137 145.989 524.741 152.333 524.741 160.193C524.741 167.343 522.634 173.616 518.42 179.014C514.253 184.412 508.524 188.626 501.232 191.656C493.988 194.639 485.631 196.131 476.161 196.131C461.72 196.131 450.214 193.124 441.644 187.111C433.121 181.05 428.126 172.812 426.658 162.395L456.417 160.832C457.317 165.236 459.495 168.598 462.951 170.918C466.407 173.19 470.835 174.327 476.232 174.327C481.535 174.327 485.797 173.309 489.016 171.273C492.283 169.189 493.941 166.514 493.988 163.247C493.941 160.501 492.781 158.252 490.508 156.5C488.235 154.701 484.731 153.328 479.996 152.381L461.104 148.616C450.451 146.486 442.52 142.793 437.312 137.537C432.151 132.281 429.57 125.581 429.57 117.438C429.57 110.43 431.464 104.393 435.252 99.3267C439.087 94.2604 444.461 90.3542 451.374 87.608C458.335 84.8617 466.478 83.4886 475.806 83.4886C489.585 83.4886 500.427 86.4006 508.335 92.2244C516.289 98.0483 520.929 105.979 522.255 116.017ZM634.56 116.017L606.861 117.722C606.387 115.354 605.369 113.223 603.807 111.33C602.244 109.388 600.185 107.849 597.628 106.713C595.118 105.529 592.112 104.938 588.608 104.938C583.92 104.938 579.967 105.932 576.747 107.92C573.527 109.862 571.918 112.466 571.918 115.733C571.918 118.337 572.959 120.539 575.043 122.338C577.126 124.137 580.701 125.581 585.767 126.67L605.511 130.648C616.117 132.826 624.025 136.33 629.233 141.159C634.441 145.989 637.045 152.333 637.045 160.193C637.045 167.343 634.938 173.616 630.724 179.014C626.558 184.412 620.829 188.626 613.537 191.656C606.293 194.639 597.936 196.131 588.466 196.131C574.025 196.131 562.519 193.124 553.949 187.111C545.426 181.05 540.431 172.812 538.963 162.395L568.722 160.832C569.621 165.236 571.799 168.598 575.256 170.918C578.712 173.19 583.139 174.327 588.537 174.327C593.84 174.327 598.101 173.309 601.321 171.273C604.588 169.189 606.245 166.514 606.293 163.247C606.245 160.501 605.085 158.252 602.812 156.5C600.54 154.701 597.036 153.328 592.301 152.381L573.409 148.616C562.756 146.486 554.825 142.793 549.616 137.537C544.455 132.281 541.875 125.581 541.875 117.438C541.875 110.43 543.769 104.393 547.557 99.3267C551.392 94.2604 556.766 90.3542 563.679 87.608C570.639 84.8617 578.783 83.4886 588.111 83.4886C601.889 83.4886 612.732 86.4006 620.639 92.2244C628.594 98.0483 633.234 105.979 634.56 116.017ZM708.228 194H656.665V48.5455H708.654C723.285 48.5455 735.879 51.4574 746.438 57.2812C756.997 63.0578 765.117 71.3674 770.799 82.2102C776.528 93.053 779.393 106.027 779.393 121.131C779.393 136.282 776.528 149.303 770.799 160.193C765.117 171.083 756.95 179.44 746.296 185.264C735.69 191.088 723.001 194 708.228 194ZM687.418 167.651H706.95C716.04 167.651 723.687 166.041 729.89 162.821C736.14 159.554 740.827 154.511 743.952 147.693C747.125 140.828 748.711 131.973 748.711 121.131C748.711 110.383 747.125 101.599 743.952 94.7812C740.827 87.9631 736.164 82.9441 729.961 79.7244C723.758 76.5047 716.112 74.8949 707.021 74.8949H687.418V167.651ZM802.173 194V48.5455H860.412C871.113 48.5455 880.038 50.1316 887.188 53.304C894.337 56.4763 899.711 60.8797 903.31 66.5142C906.908 72.1013 908.707 78.5407 908.707 85.8324C908.707 91.5142 907.571 96.5095 905.298 100.818C903.026 105.08 899.901 108.583 895.923 111.33C891.993 114.028 887.495 115.946 882.429 117.082V118.503C887.969 118.74 893.153 120.302 897.983 123.19C902.86 126.079 906.813 130.127 909.844 135.335C912.874 140.496 914.389 146.652 914.389 153.801C914.389 161.519 912.472 168.408 908.636 174.469C904.848 180.482 899.238 185.241 891.804 188.744C884.37 192.248 875.208 194 864.318 194H802.173ZM832.926 168.858H857.997C866.567 168.858 872.817 167.224 876.747 163.957C880.677 160.643 882.642 156.24 882.642 150.747C882.642 146.723 881.671 143.171 879.73 140.094C877.789 137.016 875.019 134.601 871.42 132.849C867.869 131.098 863.632 130.222 858.707 130.222H832.926V168.858ZM832.926 109.412H855.724C859.938 109.412 863.679 108.678 866.946 107.21C870.26 105.695 872.865 103.564 874.759 100.818C876.7 98.072 877.67 94.7812 877.67 90.946C877.67 85.6903 875.8 81.4527 872.06 78.233C868.366 75.0133 863.111 73.4034 856.293 73.4034H832.926V109.412Z" fill="white"/>
<path d="M182.642 194V48.5455H213.395V112.679H215.312L267.656 48.5455H304.517L250.54 113.673L305.156 194H268.366L228.523 134.199L213.395 152.665V194H182.642ZM361.673 196.131C350.451 196.131 340.792 193.858 332.695 189.312C324.646 184.72 318.443 178.233 314.087 169.852C309.731 161.424 307.553 151.457 307.553 139.952C307.553 128.73 309.731 118.882 314.087 110.406C318.443 101.931 324.575 95.3258 332.482 90.5909C340.437 85.8561 349.764 83.4886 360.465 83.4886C367.662 83.4886 374.362 84.6487 380.565 86.9688C386.815 89.2415 392.26 92.6742 396.9 97.267C401.587 101.86 405.233 107.636 407.837 114.597C410.442 121.509 411.744 129.606 411.744 138.886V147.196H319.627V128.446H383.263C383.263 124.09 382.317 120.231 380.423 116.869C378.529 113.508 375.901 110.88 372.539 108.986C369.225 107.045 365.366 106.074 360.962 106.074C356.37 106.074 352.298 107.139 348.746 109.27C345.243 111.353 342.496 114.17 340.508 117.722C338.519 121.225 337.501 125.132 337.454 129.44V147.267C337.454 152.665 338.448 157.329 340.437 161.259C342.473 165.188 345.337 168.219 349.031 170.349C352.724 172.48 357.103 173.545 362.17 173.545C365.531 173.545 368.609 173.072 371.403 172.125C374.196 171.178 376.587 169.758 378.576 167.864C380.565 165.97 382.08 163.65 383.121 160.903L411.104 162.75C409.684 169.473 406.772 175.345 402.369 180.364C398.013 185.335 392.378 189.218 385.465 192.011C378.6 194.758 370.669 196.131 361.673 196.131ZM522.255 116.017L494.556 117.722C494.083 115.354 493.065 113.223 491.502 111.33C489.94 109.388 487.88 107.849 485.323 106.713C482.814 105.529 479.807 104.938 476.303 104.938C471.616 104.938 467.662 105.932 464.442 107.92C461.223 109.862 459.613 112.466 459.613 115.733C459.613 118.337 460.655 120.539 462.738 122.338C464.821 124.137 468.396 125.581 473.462 126.67L493.207 130.648C503.813 132.826 511.72 136.33 516.928 141.159C522.137 145.989 524.741 152.333 524.741 160.193C524.741 167.343 522.634 173.616 518.42 179.014C514.253 184.412 508.524 188.626 501.232 191.656C493.988 194.639 485.631 196.131 476.161 196.131C461.72 196.131 450.214 193.124 441.644 187.111C433.121 181.05 428.126 172.812 426.658 162.395L456.417 160.832C457.317 165.236 459.495 168.598 462.951 170.918C466.407 173.19 470.835 174.327 476.232 174.327C481.535 174.327 485.797 173.309 489.016 171.273C492.283 169.189 493.941 166.514 493.988 163.247C493.941 160.501 492.781 158.252 490.508 156.5C488.235 154.701 484.731 153.328 479.996 152.381L461.104 148.616C450.451 146.486 442.52 142.793 437.312 137.537C432.151 132.281 429.57 125.581 429.57 117.438C429.57 110.43 431.464 104.393 435.252 99.3267C439.087 94.2604 444.461 90.3542 451.374 87.608C458.335 84.8617 466.478 83.4886 475.806 83.4886C489.585 83.4886 500.427 86.4006 508.335 92.2244C516.289 98.0483 520.929 105.979 522.255 116.017ZM634.56 116.017L606.861 117.722C606.387 115.354 605.369 113.223 603.807 111.33C602.244 109.388 600.185 107.849 597.628 106.713C595.118 105.529 592.112 104.938 588.608 104.938C583.92 104.938 579.967 105.932 576.747 107.92C573.527 109.862 571.918 112.466 571.918 115.733C571.918 118.337 572.959 120.539 575.043 122.338C577.126 124.137 580.701 125.581 585.767 126.67L605.511 130.648C616.117 132.826 624.025 136.33 629.233 141.159C634.441 145.989 637.045 152.333 637.045 160.193C637.045 167.343 634.938 173.616 630.724 179.014C626.558 184.412 620.829 188.626 613.537 191.656C606.293 194.639 597.936 196.131 588.466 196.131C574.025 196.131 562.519 193.124 553.949 187.111C545.426 181.05 540.431 172.812 538.963 162.395L568.722 160.832C569.621 165.236 571.799 168.598 575.256 170.918C578.712 173.19 583.139 174.327 588.537 174.327C593.84 174.327 598.101 173.309 601.321 171.273C604.588 169.189 606.245 166.514 606.293 163.247C606.245 160.501 605.085 158.252 602.812 156.5C600.54 154.701 597.036 153.328 592.301 152.381L573.409 148.616C562.756 146.486 554.825 142.793 549.616 137.537C544.455 132.281 541.875 125.581 541.875 117.438C541.875 110.43 543.769 104.393 547.557 99.3267C551.392 94.2604 556.766 90.3542 563.679 87.608C570.639 84.8617 578.783 83.4886 588.111 83.4886C601.889 83.4886 612.732 86.4006 620.639 92.2244C628.594 98.0483 633.234 105.979 634.56 116.017ZM708.228 194H656.665V48.5455H708.654C723.285 48.5455 735.879 51.4574 746.438 57.2812C756.997 63.0578 765.117 71.3674 770.799 82.2102C776.528 93.053 779.393 106.027 779.393 121.131C779.393 136.282 776.528 149.303 770.799 160.193C765.117 171.083 756.95 179.44 746.296 185.264C735.69 191.088 723.001 194 708.228 194ZM687.418 167.651H706.95C716.04 167.651 723.687 166.041 729.89 162.821C736.14 159.554 740.827 154.511 743.952 147.693C747.125 140.828 748.711 131.973 748.711 121.131C748.711 110.383 747.125 101.599 743.952 94.7812C740.827 87.9631 736.164 82.9441 729.961 79.7244C723.758 76.5047 716.112 74.8949 707.021 74.8949H687.418V167.651ZM802.173 194V48.5455H860.412C871.113 48.5455 880.038 50.1316 887.188 53.304C894.337 56.4763 899.711 60.8797 903.31 66.5142C906.908 72.1013 908.707 78.5407 908.707 85.8324C908.707 91.5142 907.571 96.5095 905.298 100.818C903.026 105.08 899.901 108.583 895.923 111.33C891.993 114.028 887.495 115.946 882.429 117.082V118.503C887.969 118.74 893.153 120.302 897.983 123.19C902.86 126.079 906.813 130.127 909.844 135.335C912.874 140.496 914.389 146.652 914.389 153.801C914.389 161.519 912.472 168.408 908.636 174.469C904.848 180.482 899.238 185.241 891.804 188.744C884.37 192.248 875.208 194 864.318 194H802.173ZM832.926 168.858H857.997C866.567 168.858 872.817 167.224 876.747 163.957C880.677 160.643 882.642 156.24 882.642 150.747C882.642 146.723 881.671 143.171 879.73 140.094C877.789 137.016 875.019 134.601 871.42 132.849C867.869 131.098 863.632 130.222 858.707 130.222H832.926V168.858ZM832.926 109.412H855.724C859.938 109.412 863.679 108.678 866.946 107.21C870.26 105.695 872.865 103.564 874.759 100.818C876.7 98.072 877.67 94.7812 877.67 90.946C877.67 85.6903 875.8 81.4527 872.06 78.233C868.366 75.0133 863.111 73.4034 856.293 73.4034H832.926V109.412Z" fill="white"/>
<path fill-rule="evenodd" clip-rule="evenodd" d="M68.0635 115.115L133.551 76.9885L68.0635 38.8619V115.115ZM68.0635 38.8621L2.57605 76.9887L68.0635 115.115V38.8621Z" fill="#5AB9FF"/>
<path fill-rule="evenodd" clip-rule="evenodd" d="M68.0634 115.115L68.0635 115.115L2.57604 76.9888V153.242L2.57599 153.242L68.0634 191.369V115.115Z" fill="#31A9FF"/>
<path fill-rule="evenodd" clip-rule="evenodd" d="M133.551 76.9888L68.0634 115.115V191.369L133.551 153.242V76.9888Z" fill="#0897FF"/>
<path fill-rule="evenodd" clip-rule="evenodd" d="M106.898 168.739L140.948 148.915L106.898 129.091L106.898 129.091V129.091L72.8474 148.915L106.898 168.739L106.898 168.739V168.739Z" fill="#5AB9FF"/>
<path fill-rule="evenodd" clip-rule="evenodd" d="M106.898 168.739L72.8473 148.915V188.563L72.8474 188.563L106.898 208.387V168.739L106.898 168.739Z" fill="#31A9FF"/>
<path fill-rule="evenodd" clip-rule="evenodd" d="M140.948 188.563L106.897 208.387V168.739L106.898 168.739L140.948 148.915V188.563L140.948 188.563Z" fill="#0C99FF"/>
<rect x="130" y="74.1079" width="5" height="72.0776" rx="2.5" fill="white"/>
<rect x="1" y="74.1079" width="5" height="79.1838" rx="2.5" fill="white"/>
<rect x="138" y="146.186" width="5" height="42.6374" rx="2.5" fill="white"/>
<rect width="5.31293" height="80.4545" rx="2.65647" transform="matrix(0.49327 -0.869876 0.863378 0.504558 63.6547 40.2002)" fill="white"/>
<rect width="5.31293" height="82.6075" rx="2.65647" transform="matrix(0.49327 -0.869876 0.863378 0.504558 0 152.197)" fill="white"/>
<rect width="5.31293" height="45.8752" rx="2.65647" transform="matrix(0.49327 -0.869876 0.863378 0.504558 68.1573 186.849)" fill="white"/>
<rect width="5.31293" height="14.8234" rx="2.65647" transform="matrix(0.49327 -0.869876 0.863378 0.504558 128.941 144.949)" fill="white"/>
<rect width="5.31293" height="78.6662" rx="2.65647" transform="matrix(0.493308 0.869855 -0.863355 0.504597 68.161 35.5312)" fill="white"/>
<rect width="5.31293" height="44.3194" rx="2.65647" transform="matrix(0.493308 0.869855 -0.863355 0.504597 141.69 182.989)" fill="white"/>
<g filter="url(#filter0_d_178_262)">
<path fill-rule="evenodd" clip-rule="evenodd" d="M68.0634 103.57C64.9032 103.57 62.3414 106.132 62.3414 109.292V188.123C62.3414 191.283 64.9032 193.844 68.0634 193.844C71.2235 193.844 73.7853 191.283 73.7853 188.123V155.74L103.858 173.315C106.618 174.928 110.133 173.981 111.71 171.201C113.286 168.42 112.327 164.859 109.568 163.246L83.4879 148.005L107.687 133.862C110.447 132.249 111.405 128.688 109.829 125.908C108.252 123.127 104.737 122.181 101.977 123.794L73.7853 140.271V109.292C73.7853 106.132 71.2235 103.57 68.0634 103.57Z" fill="white"/>
</g>
<circle cx="922.5" cy="46.5" r="9.5" stroke="white" stroke-width="2"/>
<path d="M919.119 52V41.8182H922.748C923.537 41.8182 924.191 41.9541 924.712 42.2259C925.235 42.4976 925.626 42.8738 925.885 43.3544C926.143 43.8317 926.273 44.3835 926.273 45.0099C926.273 45.633 926.142 46.1816 925.88 46.6555C925.621 47.1262 925.23 47.4924 924.707 47.7543C924.186 48.0161 923.532 48.147 922.743 48.147H919.994V46.8246H922.604C923.101 46.8246 923.505 46.7533 923.817 46.6108C924.132 46.4683 924.362 46.2611 924.508 45.9893C924.654 45.7176 924.727 45.3911 924.727 45.0099C924.727 44.6255 924.652 44.2924 924.503 44.0107C924.357 43.7289 924.127 43.5135 923.812 43.3643C923.5 43.2119 923.091 43.1357 922.584 43.1357H920.655V52H919.119ZM924.145 47.4062L926.661 52H924.911L922.445 47.4062H924.145Z" fill="white"/>
<path d="M182.642 194V48.5455H213.395V112.679H215.312L267.656 48.5455H304.517L250.54 113.673L305.156 194H268.366L228.523 134.199L213.395 152.665V194H182.642ZM361.673 196.131C350.451 196.131 340.792 193.858 332.695 189.312C324.646 184.72 318.443 178.233 314.087 169.852C309.731 161.424 307.553 151.457 307.553 139.952C307.553 128.73 309.731 118.882 314.087 110.406C318.443 101.931 324.575 95.3258 332.482 90.5909C340.437 85.8561 349.764 83.4886 360.465 83.4886C367.662 83.4886 374.362 84.6487 380.565 86.9688C386.815 89.2415 392.26 92.6742 396.9 97.267C401.587 101.86 405.233 107.636 407.837 114.597C410.442 121.509 411.744 129.606 411.744 138.886V147.196H319.627V128.446H383.263C383.263 124.09 382.317 120.231 380.423 116.869C378.529 113.508 375.901 110.88 372.539 108.986C369.225 107.045 365.366 106.074 360.962 106.074C356.37 106.074 352.298 107.139 348.746 109.27C345.243 111.353 342.496 114.17 340.508 117.722C338.519 121.225 337.501 125.132 337.454 129.44V147.267C337.454 152.665 338.448 157.329 340.437 161.259C342.473 165.188 345.337 168.219 349.031 170.349C352.724 172.48 357.103 173.545 362.17 173.545C365.531 173.545 368.609 173.072 371.403 172.125C374.196 171.178 376.587 169.758 378.576 167.864C380.565 165.97 382.08 163.65 383.121 160.903L411.104 162.75C409.684 169.473 406.772 175.345 402.369 180.364C398.013 185.335 392.378 189.218 385.465 192.011C378.6 194.758 370.669 196.131 361.673 196.131ZM522.255 116.017L494.556 117.722C494.083 115.354 493.065 113.223 491.502 111.33C489.94 109.388 487.88 107.849 485.323 106.713C482.814 105.529 479.807 104.938 476.303 104.938C471.616 104.938 467.662 105.932 464.442 107.92C461.223 109.862 459.613 112.466 459.613 115.733C459.613 118.337 460.655 120.539 462.738 122.338C464.821 124.137 468.396 125.581 473.462 126.67L493.207 130.648C503.813 132.826 511.72 136.33 516.928 141.159C522.137 145.989 524.741 152.333 524.741 160.193C524.741 167.343 522.634 173.616 518.42 179.014C514.253 184.412 508.524 188.626 501.232 191.656C493.988 194.639 485.631 196.131 476.161 196.131C461.72 196.131 450.214 193.124 441.644 187.111C433.121 181.05 428.126 172.812 426.658 162.395L456.417 160.832C457.317 165.236 459.495 168.598 462.951 170.918C466.407 173.19 470.835 174.327 476.232 174.327C481.535 174.327 485.797 173.309 489.016 171.273C492.283 169.189 493.941 166.514 493.988 163.247C493.941 160.501 492.781 158.252 490.508 156.5C488.235 154.701 484.731 153.328 479.996 152.381L461.104 148.616C450.451 146.486 442.52 142.793 437.312 137.537C432.151 132.281 429.57 125.581 429.57 117.438C429.57 110.43 431.464 104.393 435.252 99.3267C439.087 94.2604 444.461 90.3542 451.374 87.608C458.335 84.8617 466.478 83.4886 475.806 83.4886C489.585 83.4886 500.427 86.4006 508.335 92.2244C516.289 98.0483 520.929 105.979 522.255 116.017ZM634.56 116.017L606.861 117.722C606.387 115.354 605.369 113.223 603.807 111.33C602.244 109.388 600.185 107.849 597.628 106.713C595.118 105.529 592.112 104.938 588.608 104.938C583.92 104.938 579.967 105.932 576.747 107.92C573.527 109.862 571.918 112.466 571.918 115.733C571.918 118.337 572.959 120.539 575.043 122.338C577.126 124.137 580.701 125.581 585.767 126.67L605.511 130.648C616.117 132.826 624.025 136.33 629.233 141.159C634.441 145.989 637.045 152.333 637.045 160.193C637.045 167.343 634.938 173.616 630.724 179.014C626.558 184.412 620.829 188.626 613.537 191.656C606.293 194.639 597.936 196.131 588.466 196.131C574.025 196.131 562.519 193.124 553.949 187.111C545.426 181.05 540.431 172.812 538.963 162.395L568.722 160.832C569.621 165.236 571.799 168.598 575.256 170.918C578.712 173.19 583.139 174.327 588.537 174.327C593.84 174.327 598.101 173.309 601.321 171.273C604.588 169.189 606.245 166.514 606.293 163.247C606.245 160.501 605.085 158.252 602.812 156.5C600.54 154.701 597.036 153.328 592.301 152.381L573.409 148.616C562.756 146.486 554.825 142.793 549.616 137.537C544.455 132.281 541.875 125.581 541.875 117.438C541.875 110.43 543.769 104.393 547.557 99.3267C551.392 94.2604 556.766 90.3542 563.679 87.608C570.639 84.8617 578.783 83.4886 588.111 83.4886C601.889 83.4886 612.732 86.4006 620.639 92.2244C628.594 98.0483 633.234 105.979 634.56 116.017ZM708.228 194H656.665V48.5455H708.654C723.285 48.5455 735.879 51.4574 746.438 57.2812C756.997 63.0578 765.117 71.3674 770.799 82.2102C776.528 93.053 779.393 106.027 779.393 121.131C779.393 136.282 776.528 149.303 770.799 160.193C765.117 171.083 756.95 179.44 746.296 185.264C735.69 191.088 723.001 194 708.228 194ZM687.418 167.651H706.95C716.04 167.651 723.687 166.041 729.89 162.821C736.14 159.554 740.827 154.511 743.952 147.693C747.125 140.828 748.711 131.973 748.711 121.131C748.711 110.383 747.125 101.599 743.952 94.7812C740.827 87.9631 736.164 82.9441 729.961 79.7244C723.758 76.5047 716.112 74.8949 707.021 74.8949H687.418V167.651ZM802.173 194V48.5455H860.412C871.113 48.5455 880.038 50.1316 887.188 53.304C894.337 56.4763 899.711 60.8797 903.31 66.5142C906.908 72.1013 908.707 78.5407 908.707 85.8324C908.707 91.5142 907.571 96.5095 905.298 100.818C903.026 105.08 899.901 108.583 895.923 111.33C891.993 114.028 887.495 115.946 882.429 117.082V118.503C887.969 118.74 893.153 120.302 897.983 123.19C902.86 126.079 906.813 130.127 909.844 135.335C912.874 140.496 914.389 146.652 914.389 153.801C914.389 161.519 912.472 168.408 908.636 174.469C904.848 180.482 899.238 185.241 891.804 188.744C884.37 192.248 875.208 194 864.318 194H802.173ZM832.926 168.858H857.997C866.567 168.858 872.817 167.224 876.747 163.957C880.677 160.643 882.642 156.24 882.642 150.747C882.642 146.723 881.671 143.171 879.73 140.094C877.789 137.016 875.019 134.601 871.42 132.849C867.869 131.098 863.632 130.222 858.707 130.222H832.926V168.858ZM832.926 109.412H855.724C859.938 109.412 863.679 108.678 866.946 107.21C870.26 105.695 872.865 103.564 874.759 100.818C876.7 98.072 877.67 94.7812 877.67 90.946C877.67 85.6903 875.8 81.4527 872.06 78.233C868.366 75.0133 863.111 73.4034 856.293 73.4034H832.926V109.412Z" fill="white"/>
<path d="M182.642 194V48.5455H213.395V112.679H215.312L267.656 48.5455H304.517L250.54 113.673L305.156 194H268.366L228.523 134.199L213.395 152.665V194H182.642ZM361.673 196.131C350.451 196.131 340.792 193.858 332.695 189.312C324.646 184.72 318.443 178.233 314.087 169.852C309.731 161.424 307.553 151.457 307.553 139.952C307.553 128.73 309.731 118.882 314.087 110.406C318.443 101.931 324.575 95.3258 332.482 90.5909C340.437 85.8561 349.764 83.4886 360.465 83.4886C367.662 83.4886 374.362 84.6487 380.565 86.9688C386.815 89.2415 392.26 92.6742 396.9 97.267C401.587 101.86 405.233 107.636 407.837 114.597C410.442 121.509 411.744 129.606 411.744 138.886V147.196H319.627V128.446H383.263C383.263 124.09 382.317 120.231 380.423 116.869C378.529 113.508 375.901 110.88 372.539 108.986C369.225 107.045 365.366 106.074 360.962 106.074C356.37 106.074 352.298 107.139 348.746 109.27C345.243 111.353 342.496 114.17 340.508 117.722C338.519 121.225 337.501 125.132 337.454 129.44V147.267C337.454 152.665 338.448 157.329 340.437 161.259C342.473 165.188 345.337 168.219 349.031 170.349C352.724 172.48 357.103 173.545 362.17 173.545C365.531 173.545 368.609 173.072 371.403 172.125C374.196 171.178 376.587 169.758 378.576 167.864C380.565 165.97 382.08 163.65 383.121 160.903L411.104 162.75C409.684 169.473 406.772 175.345 402.369 180.364C398.013 185.335 392.378 189.218 385.465 192.011C378.6 194.758 370.669 196.131 361.673 196.131ZM522.255 116.017L494.556 117.722C494.083 115.354 493.065 113.223 491.502 111.33C489.94 109.388 487.88 107.849 485.323 106.713C482.814 105.529 479.807 104.938 476.303 104.938C471.616 104.938 467.662 105.932 464.442 107.92C461.223 109.862 459.613 112.466 459.613 115.733C459.613 118.337 460.655 120.539 462.738 122.338C464.821 124.137 468.396 125.581 473.462 126.67L493.207 130.648C503.813 132.826 511.72 136.33 516.928 141.159C522.137 145.989 524.741 152.333 524.741 160.193C524.741 167.343 522.634 173.616 518.42 179.014C514.253 184.412 508.524 188.626 501.232 191.656C493.988 194.639 485.631 196.131 476.161 196.131C461.72 196.131 450.214 193.124 441.644 187.111C433.121 181.05 428.126 172.812 426.658 162.395L456.417 160.832C457.317 165.236 459.495 168.598 462.951 170.918C466.407 173.19 470.835 174.327 476.232 174.327C481.535 174.327 485.797 173.309 489.016 171.273C492.283 169.189 493.941 166.514 493.988 163.247C493.941 160.501 492.781 158.252 490.508 156.5C488.235 154.701 484.731 153.328 479.996 152.381L461.104 148.616C450.451 146.486 442.52 142.793 437.312 137.537C432.151 132.281 429.57 125.581 429.57 117.438C429.57 110.43 431.464 104.393 435.252 99.3267C439.087 94.2604 444.461 90.3542 451.374 87.608C458.335 84.8617 466.478 83.4886 475.806 83.4886C489.585 83.4886 500.427 86.4006 508.335 92.2244C516.289 98.0483 520.929 105.979 522.255 116.017ZM634.56 116.017L606.861 117.722C606.387 115.354 605.369 113.223 603.807 111.33C602.244 109.388 600.185 107.849 597.628 106.713C595.118 105.529 592.112 104.938 588.608 104.938C583.92 104.938 579.967 105.932 576.747 107.92C573.527 109.862 571.918 112.466 571.918 115.733C571.918 118.337 572.959 120.539 575.043 122.338C577.126 124.137 580.701 125.581 585.767 126.67L605.511 130.648C616.117 132.826 624.025 136.33 629.233 141.159C634.441 145.989 637.045 152.333 637.045 160.193C637.045 167.343 634.938 173.616 630.724 179.014C626.558 184.412 620.829 188.626 613.537 191.656C606.293 194.639 597.936 196.131 588.466 196.131C574.025 196.131 562.519 193.124 553.949 187.111C545.426 181.05 540.431 172.812 538.963 162.395L568.722 160.832C569.621 165.236 571.799 168.598 575.256 170.918C578.712 173.19 583.139 174.327 588.537 174.327C593.84 174.327 598.101 173.309 601.321 171.273C604.588 169.189 606.245 166.514 606.293 163.247C606.245 160.501 605.085 158.252 602.812 156.5C600.54 154.701 597.036 153.328 592.301 152.381L573.409 148.616C562.756 146.486 554.825 142.793 549.616 137.537C544.455 132.281 541.875 125.581 541.875 117.438C541.875 110.43 543.769 104.393 547.557 99.3267C551.392 94.2604 556.766 90.3542 563.679 87.608C570.639 84.8617 578.783 83.4886 588.111 83.4886C601.889 83.4886 612.732 86.4006 620.639 92.2244C628.594 98.0483 633.234 105.979 634.56 116.017ZM708.228 194H656.665V48.5455H708.654C723.285 48.5455 735.879 51.4574 746.438 57.2812C756.997 63.0578 765.117 71.3674 770.799 82.2102C776.528 93.053 779.393 106.027 779.393 121.131C779.393 136.282 776.528 149.303 770.799 160.193C765.117 171.083 756.95 179.44 746.296 185.264C735.69 191.088 723.001 194 708.228 194ZM687.418 167.651H706.95C716.04 167.651 723.687 166.041 729.89 162.821C736.14 159.554 740.827 154.511 743.952 147.693C747.125 140.828 748.711 131.973 748.711 121.131C748.711 110.383 747.125 101.599 743.952 94.7812C740.827 87.9631 736.164 82.9441 729.961 79.7244C723.758 76.5047 716.112 74.8949 707.021 74.8949H687.418V167.651ZM802.173 194V48.5455H860.412C871.113 48.5455 880.038 50.1316 887.188 53.304C894.337 56.4763 899.711 60.8797 903.31 66.5142C906.908 72.1013 908.707 78.5407 908.707 85.8324C908.707 91.5142 907.571 96.5095 905.298 100.818C903.026 105.08 899.901 108.583 895.923 111.33C891.993 114.028 887.495 115.946 882.429 117.082V118.503C887.969 118.74 893.153 120.302 897.983 123.19C902.86 126.079 906.813 130.127 909.844 135.335C912.874 140.496 914.389 146.652 914.389 153.801C914.389 161.519 912.472 168.408 908.636 174.469C904.848 180.482 899.238 185.241 891.804 188.744C884.37 192.248 875.208 194 864.318 194H802.173ZM832.926 168.858H857.997C866.567 168.858 872.817 167.224 876.747 163.957C880.677 160.643 882.642 156.24 882.642 150.747C882.642 146.723 881.671 143.171 879.73 140.094C877.789 137.016 875.019 134.601 871.42 132.849C867.869 131.098 863.632 130.222 858.707 130.222H832.926V168.858ZM832.926 109.412H855.724C859.938 109.412 863.679 108.678 866.946 107.21C870.26 105.695 872.865 103.564 874.759 100.818C876.7 98.072 877.67 94.7812 877.67 90.946C877.67 85.6903 875.8 81.4527 872.06 78.233C868.366 75.0133 863.111 73.4034 856.293 73.4034H832.926V109.412Z" fill="white"/>
<path d="M182.642 194V48.5455H213.395V112.679H215.312L267.656 48.5455H304.517L250.54 113.673L305.156 194H268.366L228.523 134.199L213.395 152.665V194H182.642ZM361.673 196.131C350.451 196.131 340.792 193.858 332.695 189.312C324.646 184.72 318.443 178.233 314.087 169.852C309.731 161.424 307.553 151.457 307.553 139.952C307.553 128.73 309.731 118.882 314.087 110.406C318.443 101.931 324.575 95.3258 332.482 90.5909C340.437 85.8561 349.764 83.4886 360.465 83.4886C367.662 83.4886 374.362 84.6487 380.565 86.9688C386.815 89.2415 392.26 92.6742 396.9 97.267C401.587 101.86 405.233 107.636 407.837 114.597C410.442 121.509 411.744 129.606 411.744 138.886V147.196H319.627V128.446H383.263C383.263 124.09 382.317 120.231 380.423 116.869C378.529 113.508 375.901 110.88 372.539 108.986C369.225 107.045 365.366 106.074 360.962 106.074C356.37 106.074 352.298 107.139 348.746 109.27C345.243 111.353 342.496 114.17 340.508 117.722C338.519 121.225 337.501 125.132 337.454 129.44V147.267C337.454 152.665 338.448 157.329 340.437 161.259C342.473 165.188 345.337 168.219 349.031 170.349C352.724 172.48 357.103 173.545 362.17 173.545C365.531 173.545 368.609 173.072 371.403 172.125C374.196 171.178 376.587 169.758 378.576 167.864C380.565 165.97 382.08 163.65 383.121 160.903L411.104 162.75C409.684 169.473 406.772 175.345 402.369 180.364C398.013 185.335 392.378 189.218 385.465 192.011C378.6 194.758 370.669 196.131 361.673 196.131ZM522.255 116.017L494.556 117.722C494.083 115.354 493.065 113.223 491.502 111.33C489.94 109.388 487.88 107.849 485.323 106.713C482.814 105.529 479.807 104.938 476.303 104.938C471.616 104.938 467.662 105.932 464.442 107.92C461.223 109.862 459.613 112.466 459.613 115.733C459.613 118.337 460.655 120.539 462.738 122.338C464.821 124.137 468.396 125.581 473.462 126.67L493.207 130.648C503.813 132.826 511.72 136.33 516.928 141.159C522.137 145.989 524.741 152.333 524.741 160.193C524.741 167.343 522.634 173.616 518.42 179.014C514.253 184.412 508.524 188.626 501.232 191.656C493.988 194.639 485.631 196.131 476.161 196.131C461.72 196.131 450.214 193.124 441.644 187.111C433.121 181.05 428.126 172.812 426.658 162.395L456.417 160.832C457.317 165.236 459.495 168.598 462.951 170.918C466.407 173.19 470.835 174.327 476.232 174.327C481.535 174.327 485.797 173.309 489.016 171.273C492.283 169.189 493.941 166.514 493.988 163.247C493.941 160.501 492.781 158.252 490.508 156.5C488.235 154.701 484.731 153.328 479.996 152.381L461.104 148.616C450.451 146.486 442.52 142.793 437.312 137.537C432.151 132.281 429.57 125.581 429.57 117.438C429.57 110.43 431.464 104.393 435.252 99.3267C439.087 94.2604 444.461 90.3542 451.374 87.608C458.335 84.8617 466.478 83.4886 475.806 83.4886C489.585 83.4886 500.427 86.4006 508.335 92.2244C516.289 98.0483 520.929 105.979 522.255 116.017ZM634.56 116.017L606.861 117.722C606.387 115.354 605.369 113.223 603.807 111.33C602.244 109.388 600.185 107.849 597.628 106.713C595.118 105.529 592.112 104.938 588.608 104.938C583.92 104.938 579.967 105.932 576.747 107.92C573.527 109.862 571.918 112.466 571.918 115.733C571.918 118.337 572.959 120.539 575.043 122.338C577.126 124.137 580.701 125.581 585.767 126.67L605.511 130.648C616.117 132.826 624.025 136.33 629.233 141.159C634.441 145.989 637.045 152.333 637.045 160.193C637.045 167.343 634.938 173.616 630.724 179.014C626.558 184.412 620.829 188.626 613.537 191.656C606.293 194.639 597.936 196.131 588.466 196.131C574.025 196.131 562.519 193.124 553.949 187.111C545.426 181.05 540.431 172.812 538.963 162.395L568.722 160.832C569.621 165.236 571.799 168.598 575.256 170.918C578.712 173.19 583.139 174.327 588.537 174.327C593.84 174.327 598.101 173.309 601.321 171.273C604.588 169.189 606.245 166.514 606.293 163.247C606.245 160.501 605.085 158.252 602.812 156.5C600.54 154.701 597.036 153.328 592.301 152.381L573.409 148.616C562.756 146.486 554.825 142.793 549.616 137.537C544.455 132.281 541.875 125.581 541.875 117.438C541.875 110.43 543.769 104.393 547.557 99.3267C551.392 94.2604 556.766 90.3542 563.679 87.608C570.639 84.8617 578.783 83.4886 588.111 83.4886C601.889 83.4886 612.732 86.4006 620.639 92.2244C628.594 98.0483 633.234 105.979 634.56 116.017ZM708.228 194H656.665V48.5455H708.654C723.285 48.5455 735.879 51.4574 746.438 57.2812C756.997 63.0578 765.117 71.3674 770.799 82.2102C776.528 93.053 779.393 106.027 779.393 121.131C779.393 136.282 776.528 149.303 770.799 160.193C765.117 171.083 756.95 179.44 746.296 185.264C735.69 191.088 723.001 194 708.228 194ZM687.418 167.651H706.95C716.04 167.651 723.687 166.041 729.89 162.821C736.14 159.554 740.827 154.511 743.952 147.693C747.125 140.828 748.711 131.973 748.711 121.131C748.711 110.383 747.125 101.599 743.952 94.7812C740.827 87.9631 736.164 82.9441 729.961 79.7244C723.758 76.5047 716.112 74.8949 707.021 74.8949H687.418V167.651ZM802.173 194V48.5455H860.412C871.113 48.5455 880.038 50.1316 887.188 53.304C894.337 56.4763 899.711 60.8797 903.31 66.5142C906.908 72.1013 908.707 78.5407 908.707 85.8324C908.707 91.5142 907.571 96.5095 905.298 100.818C903.026 105.08 899.901 108.583 895.923 111.33C891.993 114.028 887.495 115.946 882.429 117.082V118.503C887.969 118.74 893.153 120.302 897.983 123.19C902.86 126.079 906.813 130.127 909.844 135.335C912.874 140.496 914.389 146.652 914.389 153.801C914.389 161.519 912.472 168.408 908.636 174.469C904.848 180.482 899.238 185.241 891.804 188.744C884.37 192.248 875.208 194 864.318 194H802.173ZM832.926 168.858H857.997C866.567 168.858 872.817 167.224 876.747 163.957C880.677 160.643 882.642 156.24 882.642 150.747C882.642 146.723 881.671 143.171 879.73 140.094C877.789 137.016 875.019 134.601 871.42 132.849C867.869 131.098 863.632 130.222 858.707 130.222H832.926V168.858ZM832.926 109.412H855.724C859.938 109.412 863.679 108.678 866.946 107.21C870.26 105.695 872.865 103.564 874.759 100.818C876.7 98.072 877.67 94.7812 877.67 90.946C877.67 85.6903 875.8 81.4527 872.06 78.233C868.366 75.0133 863.111 73.4034 856.293 73.4034H832.926V109.412Z" fill="white"/>
<path fill-rule="evenodd" clip-rule="evenodd" d="M68.0635 115.115L133.551 76.9885L68.0635 38.8619V115.115ZM68.0635 38.8621L2.57605 76.9887L68.0635 115.115V38.8621Z" fill="#5AB9FF"/>
<path fill-rule="evenodd" clip-rule="evenodd" d="M68.0634 115.115L68.0635 115.115L2.57604 76.9888V153.242L2.57599 153.242L68.0634 191.369V115.115Z" fill="#31A9FF"/>
<path fill-rule="evenodd" clip-rule="evenodd" d="M133.551 76.9888L68.0634 115.115V191.369L133.551 153.242V76.9888Z" fill="#0897FF"/>
<path fill-rule="evenodd" clip-rule="evenodd" d="M106.898 168.739L140.948 148.915L106.898 129.091L106.898 129.091V129.091L72.8474 148.915L106.898 168.739L106.898 168.739V168.739Z" fill="#5AB9FF"/>
<path fill-rule="evenodd" clip-rule="evenodd" d="M106.898 168.739L72.8473 148.915V188.563L72.8474 188.563L106.898 208.387V168.739L106.898 168.739Z" fill="#31A9FF"/>
<path fill-rule="evenodd" clip-rule="evenodd" d="M140.948 188.563L106.897 208.387V168.739L106.898 168.739L140.948 148.915V188.563L140.948 188.563Z" fill="#0C99FF"/>
<rect x="130" y="74.1079" width="5" height="72.0776" rx="2.5" fill="white"/>
<rect x="1" y="74.1079" width="5" height="79.1838" rx="2.5" fill="white"/>
<rect x="138" y="146.186" width="5" height="42.6374" rx="2.5" fill="white"/>
<rect width="5.31293" height="80.4545" rx="2.65647" transform="matrix(0.49327 -0.869876 0.863378 0.504558 63.6547 40.2002)" fill="white"/>
<rect width="5.31293" height="82.6075" rx="2.65647" transform="matrix(0.49327 -0.869876 0.863378 0.504558 0 152.197)" fill="white"/>
<rect width="5.31293" height="45.8752" rx="2.65647" transform="matrix(0.49327 -0.869876 0.863378 0.504558 68.1573 186.849)" fill="white"/>
<rect width="5.31293" height="14.8234" rx="2.65647" transform="matrix(0.49327 -0.869876 0.863378 0.504558 128.941 144.949)" fill="white"/>
<rect width="5.31293" height="78.6662" rx="2.65647" transform="matrix(0.493308 0.869855 -0.863355 0.504597 68.161 35.5312)" fill="white"/>
<rect width="5.31293" height="44.3194" rx="2.65647" transform="matrix(0.493308 0.869855 -0.863355 0.504597 141.69 182.989)" fill="white"/>
<g filter="url(#filter1_d_178_262)">
<path fill-rule="evenodd" clip-rule="evenodd" d="M68.0634 103.57C64.9032 103.57 62.3414 106.132 62.3414 109.292V188.123C62.3414 191.283 64.9032 193.844 68.0634 193.844C71.2235 193.844 73.7853 191.283 73.7853 188.123V155.74L103.858 173.315C106.618 174.928 110.133 173.981 111.71 171.201C113.286 168.42 112.327 164.859 109.568 163.246L83.4879 148.005L107.687 133.862C110.447 132.249 111.405 128.688 109.829 125.908C108.252 123.127 104.737 122.181 101.977 123.794L73.7853 140.271V109.292C73.7853 106.132 71.2235 103.57 68.0634 103.57Z" fill="white"/>
</g>
<circle cx="922.5" cy="46.5" r="9.5" stroke="white" stroke-width="2"/>
<path d="M919.119 52V41.8182H922.748C923.537 41.8182 924.191 41.9541 924.712 42.2259C925.235 42.4976 925.626 42.8738 925.885 43.3544C926.143 43.8317 926.273 44.3835 926.273 45.0099C926.273 45.633 926.142 46.1816 925.88 46.6555C925.621 47.1262 925.23 47.4924 924.707 47.7543C924.186 48.0161 923.532 48.147 922.743 48.147H919.994V46.8246H922.604C923.101 46.8246 923.505 46.7533 923.817 46.6108C924.132 46.4683 924.362 46.2611 924.508 45.9893C924.654 45.7176 924.727 45.3911 924.727 45.0099C924.727 44.6255 924.652 44.2924 924.503 44.0107C924.357 43.7289 924.127 43.5135 923.812 43.3643C923.5 43.2119 923.091 43.1357 922.584 43.1357H920.655V52H919.119ZM924.145 47.4062L926.661 52H924.911L922.445 47.4062H924.145Z" fill="white"/>
<defs>
<filter id="filter0_d_178_262" x="62.3414" y="103.57" width="100.127" height="140.274" filterUnits="userSpaceOnUse" color-interpolation-filters="sRGB">
<feFlood flood-opacity="0" result="BackgroundImageFix"/>
<feColorMatrix in="SourceAlpha" type="matrix" values="0 0 0 0 0 0 0 0 0 0 0 0 0 0 0 0 0 0 127 0" result="hardAlpha"/>
<feOffset dx="25" dy="25"/>
<feGaussianBlur stdDeviation="12.5"/>
<feComposite in2="hardAlpha" operator="out"/>
<feColorMatrix type="matrix" values="0 0 0 0 0 0 0 0 0 0 0 0 0 0 0 0 0 0 0.05 0"/>
<feBlend mode="normal" in2="BackgroundImageFix" result="effect1_dropShadow_178_262"/>
<feBlend mode="normal" in="SourceGraphic" in2="effect1_dropShadow_178_262" result="shape"/>
</filter>
<filter id="filter1_d_178_262" x="62.3414" y="103.57" width="100.127" height="140.274" filterUnits="userSpaceOnUse" color-interpolation-filters="sRGB">
<feFlood flood-opacity="0" result="BackgroundImageFix"/>
<feColorMatrix in="SourceAlpha" type="matrix" values="0 0 0 0 0 0 0 0 0 0 0 0 0 0 0 0 0 0 127 0" result="hardAlpha"/>
<feOffset dx="25" dy="25"/>
<feGaussianBlur stdDeviation="12.5"/>
<feComposite in2="hardAlpha" operator="out"/>
<feColorMatrix type="matrix" values="0 0 0 0 0 0 0 0 0 0 0 0 0 0 0 0 0 0 0.05 0"/>
<feBlend mode="normal" in2="BackgroundImageFix" result="effect1_dropShadow_178_262"/>
<feBlend mode="normal" in="SourceGraphic" in2="effect1_dropShadow_178_262" result="shape"/>
</filter>
</defs>
</svg>
