<svg width="111" height="23" viewBox="0 0 111 23" fill="none" xmlns="http://www.w3.org/2000/svg">
<path d="M0.896307 22V0.181818H5.50923V9.80185H5.79688L13.6484 0.181818H19.1776L11.081 9.95099L19.2734 22H13.755L7.77841 13.0298L5.50923 15.7997V22H0.896307ZM27.7509 22.3196C26.0676 22.3196 24.6188 21.9787 23.4043 21.2969C22.1969 20.608 21.2665 19.6349 20.6131 18.3778C19.9597 17.1136 19.633 15.6186 19.633 13.8928C19.633 12.2095 19.9597 10.7322 20.6131 9.46094C21.2665 8.18963 22.1863 7.19886 23.3723 6.48864C24.5655 5.77841 25.9647 5.4233 27.5698 5.4233C28.6493 5.4233 29.6543 5.5973 30.5847 5.94531C31.5222 6.28622 32.339 6.80114 33.035 7.49006C33.7381 8.17898 34.285 9.04545 34.6756 10.0895C35.0662 11.1264 35.2615 12.3409 35.2615 13.733V14.9794H21.4441V12.1669H30.9895C30.9895 11.5135 30.8475 10.9347 30.5634 10.4304C30.2793 9.92614 29.8851 9.53196 29.3809 9.24787C28.8837 8.95668 28.3049 8.81108 27.6444 8.81108C26.9554 8.81108 26.3446 8.97088 25.812 9.29048C25.2864 9.60298 24.8745 10.0256 24.5762 10.5582C24.2779 11.0838 24.1252 11.6697 24.1181 12.3161V14.9901C24.1181 15.7997 24.2672 16.4993 24.5655 17.0888C24.8709 17.6783 25.3006 18.1328 25.8546 18.4524C26.4086 18.772 27.0655 18.9318 27.8255 18.9318C28.3297 18.9318 28.7914 18.8608 29.2104 18.7188C29.6294 18.5767 29.9881 18.3636 30.2864 18.0795C30.5847 17.7955 30.812 17.4474 30.9682 17.0355L35.1657 17.3125C34.9526 18.321 34.5158 19.2017 33.8553 19.9545C33.2019 20.7003 32.3567 21.2827 31.3198 21.7017C30.29 22.1136 29.1003 22.3196 27.7509 22.3196ZM51.8382 10.3026L47.6834 10.5582C47.6124 10.2031 47.4597 9.88352 47.2253 9.59943C46.9909 9.30824 46.682 9.07741 46.2985 8.90696C45.9221 8.7294 45.4711 8.64062 44.9455 8.64062C44.2424 8.64062 43.6493 8.78977 43.1664 9.08807C42.6834 9.37926 42.4419 9.76989 42.4419 10.2599C42.4419 10.6506 42.5982 10.9808 42.9107 11.2507C43.2232 11.5206 43.7594 11.7372 44.5194 11.9006L47.481 12.4972C49.0719 12.8239 50.258 13.3494 51.0392 14.0739C51.8205 14.7983 52.2111 15.75 52.2111 16.929C52.2111 18.0014 51.8951 18.9425 51.263 19.7521C50.638 20.5618 49.7786 21.1939 48.6848 21.6484C47.5982 22.0959 46.3446 22.3196 44.9242 22.3196C42.758 22.3196 41.0321 21.8686 39.7466 20.9666C38.4682 20.0575 37.7189 18.8217 37.4988 17.2592L41.9625 17.0249C42.0975 17.6854 42.4242 18.1896 42.9426 18.5376C43.4611 18.8786 44.1252 19.049 44.9348 19.049C45.7303 19.049 46.3695 18.8963 46.8525 18.5909C47.3425 18.2784 47.5911 17.8771 47.5982 17.3871C47.5911 16.9751 47.4171 16.6378 47.0762 16.375C46.7353 16.1051 46.2097 15.8991 45.4995 15.7571L42.6657 15.1925C41.0676 14.8729 39.878 14.3189 39.0968 13.5305C38.3226 12.7422 37.9355 11.7372 37.9355 10.5156C37.9355 9.46449 38.2196 8.55895 38.7878 7.79901C39.3631 7.03906 40.1692 6.45313 41.2061 6.04119C42.2502 5.62926 43.4718 5.4233 44.8709 5.4233C46.9377 5.4233 48.5641 5.86009 49.7502 6.73366C50.9434 7.60724 51.6394 8.79687 51.8382 10.3026ZM68.6839 10.3026L64.5291 10.5582C64.4581 10.2031 64.3054 9.88352 64.071 9.59943C63.8366 9.30824 63.5277 9.07741 63.1442 8.90696C62.7678 8.7294 62.3168 8.64062 61.7912 8.64062C61.0881 8.64062 60.495 8.78977 60.0121 9.08807C59.5291 9.37926 59.2876 9.76989 59.2876 10.2599C59.2876 10.6506 59.4439 10.9808 59.7564 11.2507C60.0689 11.5206 60.6051 11.7372 61.3651 11.9006L64.3267 12.4972C65.9176 12.8239 67.1037 13.3494 67.8849 14.0739C68.6662 14.7983 69.0568 15.75 69.0568 16.929C69.0568 18.0014 68.7408 18.9425 68.1087 19.7521C67.4837 20.5618 66.6243 21.1939 65.5305 21.6484C64.4439 22.0959 63.1903 22.3196 61.7699 22.3196C59.6037 22.3196 57.8778 21.8686 56.5923 20.9666C55.3139 20.0575 54.5646 18.8217 54.3445 17.2592L58.8082 17.0249C58.9432 17.6854 59.2699 18.1896 59.7884 18.5376C60.3068 18.8786 60.9709 19.049 61.7805 19.049C62.576 19.049 63.2152 18.8963 63.6982 18.5909C64.1882 18.2784 64.4368 17.8771 64.4439 17.3871C64.4368 16.9751 64.2628 16.6378 63.9219 16.375C63.581 16.1051 63.0554 15.8991 62.3452 15.7571L59.5114 15.1925C57.9134 14.8729 56.7237 14.3189 55.9425 13.5305C55.1683 12.7422 54.7812 11.7372 54.7812 10.5156C54.7812 9.46449 55.0653 8.55895 55.6335 7.79901C56.2088 7.03906 57.0149 6.45313 58.0518 6.04119C59.0959 5.62926 60.3175 5.4233 61.7166 5.4233C63.7834 5.4233 65.4098 5.86009 66.5959 6.73366C67.7891 7.60724 68.4851 8.79687 68.6839 10.3026ZM79.7342 22H71.9998V0.181818H79.7981C81.9927 0.181818 83.8819 0.618608 85.4657 1.49219C87.0495 2.35866 88.2676 3.60511 89.1199 5.23153C89.9792 6.85795 90.4089 8.80398 90.4089 11.0696C90.4089 13.3423 89.9792 15.2955 89.1199 16.929C88.2676 18.5625 87.0424 19.8161 85.4444 20.6896C83.8535 21.5632 81.9501 22 79.7342 22ZM76.6127 18.0476H79.5424C80.9061 18.0476 82.0531 17.8061 82.9835 17.3232C83.921 16.8331 84.6241 16.0767 85.0929 15.054C85.5687 14.0241 85.8066 12.696 85.8066 11.0696C85.8066 9.45739 85.5687 8.13991 85.0929 7.11719C84.6241 6.09446 83.9245 5.34162 82.9941 4.85866C82.0637 4.37571 80.9167 4.13423 79.5531 4.13423H76.6127V18.0476ZM93.826 22V0.181818H102.562C104.167 0.181818 105.506 0.419744 106.578 0.895596C107.651 1.37145 108.457 2.03196 108.996 2.87713C109.536 3.7152 109.806 4.68111 109.806 5.77486C109.806 6.62713 109.636 7.37642 109.295 8.02273C108.954 8.66193 108.485 9.1875 107.888 9.59943C107.299 10.0043 106.624 10.2919 105.864 10.4624V10.6754C106.695 10.7109 107.473 10.9453 108.197 11.3786C108.929 11.8118 109.522 12.419 109.977 13.2003C110.431 13.9744 110.658 14.8977 110.658 15.9702C110.658 17.1278 110.371 18.1612 109.795 19.0703C109.227 19.9723 108.386 20.6861 107.271 21.2116C106.156 21.7372 104.781 22 103.148 22H93.826ZM98.4389 18.2287H102.2C103.485 18.2287 104.423 17.9837 105.012 17.4936C105.602 16.9964 105.896 16.3359 105.896 15.5121C105.896 14.9084 105.751 14.3757 105.46 13.9141C105.168 13.4524 104.753 13.0902 104.213 12.8274C103.68 12.5646 103.045 12.4332 102.306 12.4332H98.4389V18.2287ZM98.4389 9.31179H101.859C102.491 9.31179 103.052 9.2017 103.542 8.98153C104.039 8.75426 104.43 8.43466 104.714 8.02273C105.005 7.6108 105.151 7.11719 105.151 6.5419C105.151 5.75355 104.87 5.1179 104.309 4.63494C103.755 4.15199 102.967 3.91051 101.944 3.91051H98.4389V9.31179Z" fill="black"/>
<path d="M0.896307 22V0.181818H5.50923V9.80185H5.79688L13.6484 0.181818H19.1776L11.081 9.95099L19.2734 22H13.755L7.77841 13.0298L5.50923 15.7997V22H0.896307ZM27.7509 22.3196C26.0676 22.3196 24.6188 21.9787 23.4043 21.2969C22.1969 20.608 21.2665 19.6349 20.6131 18.3778C19.9597 17.1136 19.633 15.6186 19.633 13.8928C19.633 12.2095 19.9597 10.7322 20.6131 9.46094C21.2665 8.18963 22.1863 7.19886 23.3723 6.48864C24.5655 5.77841 25.9647 5.4233 27.5698 5.4233C28.6493 5.4233 29.6543 5.5973 30.5847 5.94531C31.5222 6.28622 32.339 6.80114 33.035 7.49006C33.7381 8.17898 34.285 9.04545 34.6756 10.0895C35.0662 11.1264 35.2615 12.3409 35.2615 13.733V14.9794H21.4441V12.1669H30.9895C30.9895 11.5135 30.8475 10.9347 30.5634 10.4304C30.2793 9.92614 29.8851 9.53196 29.3809 9.24787C28.8837 8.95668 28.3049 8.81108 27.6444 8.81108C26.9554 8.81108 26.3446 8.97088 25.812 9.29048C25.2864 9.60298 24.8745 10.0256 24.5762 10.5582C24.2779 11.0838 24.1252 11.6697 24.1181 12.3161V14.9901C24.1181 15.7997 24.2672 16.4993 24.5655 17.0888C24.8709 17.6783 25.3006 18.1328 25.8546 18.4524C26.4086 18.772 27.0655 18.9318 27.8255 18.9318C28.3297 18.9318 28.7914 18.8608 29.2104 18.7188C29.6294 18.5767 29.9881 18.3636 30.2864 18.0795C30.5847 17.7955 30.812 17.4474 30.9682 17.0355L35.1657 17.3125C34.9526 18.321 34.5158 19.2017 33.8553 19.9545C33.2019 20.7003 32.3567 21.2827 31.3198 21.7017C30.29 22.1136 29.1003 22.3196 27.7509 22.3196ZM51.8382 10.3026L47.6834 10.5582C47.6124 10.2031 47.4597 9.88352 47.2253 9.59943C46.9909 9.30824 46.682 9.07741 46.2985 8.90696C45.9221 8.7294 45.4711 8.64062 44.9455 8.64062C44.2424 8.64062 43.6493 8.78977 43.1664 9.08807C42.6834 9.37926 42.4419 9.76989 42.4419 10.2599C42.4419 10.6506 42.5982 10.9808 42.9107 11.2507C43.2232 11.5206 43.7594 11.7372 44.5194 11.9006L47.481 12.4972C49.0719 12.8239 50.258 13.3494 51.0392 14.0739C51.8205 14.7983 52.2111 15.75 52.2111 16.929C52.2111 18.0014 51.8951 18.9425 51.263 19.7521C50.638 20.5618 49.7786 21.1939 48.6848 21.6484C47.5982 22.0959 46.3446 22.3196 44.9242 22.3196C42.758 22.3196 41.0321 21.8686 39.7466 20.9666C38.4682 20.0575 37.7189 18.8217 37.4988 17.2592L41.9625 17.0249C42.0975 17.6854 42.4242 18.1896 42.9426 18.5376C43.4611 18.8786 44.1252 19.049 44.9348 19.049C45.7303 19.049 46.3695 18.8963 46.8525 18.5909C47.3425 18.2784 47.5911 17.8771 47.5982 17.3871C47.5911 16.9751 47.4171 16.6378 47.0762 16.375C46.7353 16.1051 46.2097 15.8991 45.4995 15.7571L42.6657 15.1925C41.0676 14.8729 39.878 14.3189 39.0968 13.5305C38.3226 12.7422 37.9355 11.7372 37.9355 10.5156C37.9355 9.46449 38.2196 8.55895 38.7878 7.79901C39.3631 7.03906 40.1692 6.45313 41.2061 6.04119C42.2502 5.62926 43.4718 5.4233 44.8709 5.4233C46.9377 5.4233 48.5641 5.86009 49.7502 6.73366C50.9434 7.60724 51.6394 8.79687 51.8382 10.3026ZM68.6839 10.3026L64.5291 10.5582C64.4581 10.2031 64.3054 9.88352 64.071 9.59943C63.8366 9.30824 63.5277 9.07741 63.1442 8.90696C62.7678 8.7294 62.3168 8.64062 61.7912 8.64062C61.0881 8.64062 60.495 8.78977 60.0121 9.08807C59.5291 9.37926 59.2876 9.76989 59.2876 10.2599C59.2876 10.6506 59.4439 10.9808 59.7564 11.2507C60.0689 11.5206 60.6051 11.7372 61.3651 11.9006L64.3267 12.4972C65.9176 12.8239 67.1037 13.3494 67.8849 14.0739C68.6662 14.7983 69.0568 15.75 69.0568 16.929C69.0568 18.0014 68.7408 18.9425 68.1087 19.7521C67.4837 20.5618 66.6243 21.1939 65.5305 21.6484C64.4439 22.0959 63.1903 22.3196 61.7699 22.3196C59.6037 22.3196 57.8778 21.8686 56.5923 20.9666C55.3139 20.0575 54.5646 18.8217 54.3445 17.2592L58.8082 17.0249C58.9432 17.6854 59.2699 18.1896 59.7884 18.5376C60.3068 18.8786 60.9709 19.049 61.7805 19.049C62.576 19.049 63.2152 18.8963 63.6982 18.5909C64.1882 18.2784 64.4368 17.8771 64.4439 17.3871C64.4368 16.9751 64.2628 16.6378 63.9219 16.375C63.581 16.1051 63.0554 15.8991 62.3452 15.7571L59.5114 15.1925C57.9134 14.8729 56.7237 14.3189 55.9425 13.5305C55.1683 12.7422 54.7812 11.7372 54.7812 10.5156C54.7812 9.46449 55.0653 8.55895 55.6335 7.79901C56.2088 7.03906 57.0149 6.45313 58.0518 6.04119C59.0959 5.62926 60.3175 5.4233 61.7166 5.4233C63.7834 5.4233 65.4098 5.86009 66.5959 6.73366C67.7891 7.60724 68.4851 8.79687 68.6839 10.3026ZM79.7342 22H71.9998V0.181818H79.7981C81.9927 0.181818 83.8819 0.618608 85.4657 1.49219C87.0495 2.35866 88.2676 3.60511 89.1199 5.23153C89.9792 6.85795 90.4089 8.80398 90.4089 11.0696C90.4089 13.3423 89.9792 15.2955 89.1199 16.929C88.2676 18.5625 87.0424 19.8161 85.4444 20.6896C83.8535 21.5632 81.9501 22 79.7342 22ZM76.6127 18.0476H79.5424C80.9061 18.0476 82.0531 17.8061 82.9835 17.3232C83.921 16.8331 84.6241 16.0767 85.0929 15.054C85.5687 14.0241 85.8066 12.696 85.8066 11.0696C85.8066 9.45739 85.5687 8.13991 85.0929 7.11719C84.6241 6.09446 83.9245 5.34162 82.9941 4.85866C82.0637 4.37571 80.9167 4.13423 79.5531 4.13423H76.6127V18.0476ZM93.826 22V0.181818H102.562C104.167 0.181818 105.506 0.419744 106.578 0.895596C107.651 1.37145 108.457 2.03196 108.996 2.87713C109.536 3.7152 109.806 4.68111 109.806 5.77486C109.806 6.62713 109.636 7.37642 109.295 8.02273C108.954 8.66193 108.485 9.1875 107.888 9.59943C107.299 10.0043 106.624 10.2919 105.864 10.4624V10.6754C106.695 10.7109 107.473 10.9453 108.197 11.3786C108.929 11.8118 109.522 12.419 109.977 13.2003C110.431 13.9744 110.658 14.8977 110.658 15.9702C110.658 17.1278 110.371 18.1612 109.795 19.0703C109.227 19.9723 108.386 20.6861 107.271 21.2116C106.156 21.7372 104.781 22 103.148 22H93.826ZM98.4389 18.2287H102.2C103.485 18.2287 104.423 17.9837 105.012 17.4936C105.602 16.9964 105.896 16.3359 105.896 15.5121C105.896 14.9084 105.751 14.3757 105.46 13.9141C105.168 13.4524 104.753 13.0902 104.213 12.8274C103.68 12.5646 103.045 12.4332 102.306 12.4332H98.4389V18.2287ZM98.4389 9.31179H101.859C102.491 9.31179 103.052 9.2017 103.542 8.98153C104.039 8.75426 104.43 8.43466 104.714 8.02273C105.005 7.6108 105.151 7.11719 105.151 6.5419C105.151 5.75355 104.87 5.1179 104.309 4.63494C103.755 4.15199 102.967 3.91051 101.944 3.91051H98.4389V9.31179Z" fill="black"/>
<path d="M0.896307 22V0.181818H5.50923V9.80185H5.79688L13.6484 0.181818H19.1776L11.081 9.95099L19.2734 22H13.755L7.77841 13.0298L5.50923 15.7997V22H0.896307ZM27.7509 22.3196C26.0676 22.3196 24.6188 21.9787 23.4043 21.2969C22.1969 20.608 21.2665 19.6349 20.6131 18.3778C19.9597 17.1136 19.633 15.6186 19.633 13.8928C19.633 12.2095 19.9597 10.7322 20.6131 9.46094C21.2665 8.18963 22.1863 7.19886 23.3723 6.48864C24.5655 5.77841 25.9647 5.4233 27.5698 5.4233C28.6493 5.4233 29.6543 5.5973 30.5847 5.94531C31.5222 6.28622 32.339 6.80114 33.035 7.49006C33.7381 8.17898 34.285 9.04545 34.6756 10.0895C35.0662 11.1264 35.2615 12.3409 35.2615 13.733V14.9794H21.4441V12.1669H30.9895C30.9895 11.5135 30.8475 10.9347 30.5634 10.4304C30.2793 9.92614 29.8851 9.53196 29.3809 9.24787C28.8837 8.95668 28.3049 8.81108 27.6444 8.81108C26.9554 8.81108 26.3446 8.97088 25.812 9.29048C25.2864 9.60298 24.8745 10.0256 24.5762 10.5582C24.2779 11.0838 24.1252 11.6697 24.1181 12.3161V14.9901C24.1181 15.7997 24.2672 16.4993 24.5655 17.0888C24.8709 17.6783 25.3006 18.1328 25.8546 18.4524C26.4086 18.772 27.0655 18.9318 27.8255 18.9318C28.3297 18.9318 28.7914 18.8608 29.2104 18.7188C29.6294 18.5767 29.9881 18.3636 30.2864 18.0795C30.5847 17.7955 30.812 17.4474 30.9682 17.0355L35.1657 17.3125C34.9526 18.321 34.5158 19.2017 33.8553 19.9545C33.2019 20.7003 32.3567 21.2827 31.3198 21.7017C30.29 22.1136 29.1003 22.3196 27.7509 22.3196ZM51.8382 10.3026L47.6834 10.5582C47.6124 10.2031 47.4597 9.88352 47.2253 9.59943C46.9909 9.30824 46.682 9.07741 46.2985 8.90696C45.9221 8.7294 45.4711 8.64062 44.9455 8.64062C44.2424 8.64062 43.6493 8.78977 43.1664 9.08807C42.6834 9.37926 42.4419 9.76989 42.4419 10.2599C42.4419 10.6506 42.5982 10.9808 42.9107 11.2507C43.2232 11.5206 43.7594 11.7372 44.5194 11.9006L47.481 12.4972C49.0719 12.8239 50.258 13.3494 51.0392 14.0739C51.8205 14.7983 52.2111 15.75 52.2111 16.929C52.2111 18.0014 51.8951 18.9425 51.263 19.7521C50.638 20.5618 49.7786 21.1939 48.6848 21.6484C47.5982 22.0959 46.3446 22.3196 44.9242 22.3196C42.758 22.3196 41.0321 21.8686 39.7466 20.9666C38.4682 20.0575 37.7189 18.8217 37.4988 17.2592L41.9625 17.0249C42.0975 17.6854 42.4242 18.1896 42.9426 18.5376C43.4611 18.8786 44.1252 19.049 44.9348 19.049C45.7303 19.049 46.3695 18.8963 46.8525 18.5909C47.3425 18.2784 47.5911 17.8771 47.5982 17.3871C47.5911 16.9751 47.4171 16.6378 47.0762 16.375C46.7353 16.1051 46.2097 15.8991 45.4995 15.7571L42.6657 15.1925C41.0676 14.8729 39.878 14.3189 39.0968 13.5305C38.3226 12.7422 37.9355 11.7372 37.9355 10.5156C37.9355 9.46449 38.2196 8.55895 38.7878 7.79901C39.3631 7.03906 40.1692 6.45313 41.2061 6.04119C42.2502 5.62926 43.4718 5.4233 44.8709 5.4233C46.9377 5.4233 48.5641 5.86009 49.7502 6.73366C50.9434 7.60724 51.6394 8.79687 51.8382 10.3026ZM68.6839 10.3026L64.5291 10.5582C64.4581 10.2031 64.3054 9.88352 64.071 9.59943C63.8366 9.30824 63.5277 9.07741 63.1442 8.90696C62.7678 8.7294 62.3168 8.64062 61.7912 8.64062C61.0881 8.64062 60.495 8.78977 60.0121 9.08807C59.5291 9.37926 59.2876 9.76989 59.2876 10.2599C59.2876 10.6506 59.4439 10.9808 59.7564 11.2507C60.0689 11.5206 60.6051 11.7372 61.3651 11.9006L64.3267 12.4972C65.9176 12.8239 67.1037 13.3494 67.8849 14.0739C68.6662 14.7983 69.0568 15.75 69.0568 16.929C69.0568 18.0014 68.7408 18.9425 68.1087 19.7521C67.4837 20.5618 66.6243 21.1939 65.5305 21.6484C64.4439 22.0959 63.1903 22.3196 61.7699 22.3196C59.6037 22.3196 57.8778 21.8686 56.5923 20.9666C55.3139 20.0575 54.5646 18.8217 54.3445 17.2592L58.8082 17.0249C58.9432 17.6854 59.2699 18.1896 59.7884 18.5376C60.3068 18.8786 60.9709 19.049 61.7805 19.049C62.576 19.049 63.2152 18.8963 63.6982 18.5909C64.1882 18.2784 64.4368 17.8771 64.4439 17.3871C64.4368 16.9751 64.2628 16.6378 63.9219 16.375C63.581 16.1051 63.0554 15.8991 62.3452 15.7571L59.5114 15.1925C57.9134 14.8729 56.7237 14.3189 55.9425 13.5305C55.1683 12.7422 54.7812 11.7372 54.7812 10.5156C54.7812 9.46449 55.0653 8.55895 55.6335 7.79901C56.2088 7.03906 57.0149 6.45313 58.0518 6.04119C59.0959 5.62926 60.3175 5.4233 61.7166 5.4233C63.7834 5.4233 65.4098 5.86009 66.5959 6.73366C67.7891 7.60724 68.4851 8.79687 68.6839 10.3026ZM79.7342 22H71.9998V0.181818H79.7981C81.9927 0.181818 83.8819 0.618608 85.4657 1.49219C87.0495 2.35866 88.2676 3.60511 89.1199 5.23153C89.9792 6.85795 90.4089 8.80398 90.4089 11.0696C90.4089 13.3423 89.9792 15.2955 89.1199 16.929C88.2676 18.5625 87.0424 19.8161 85.4444 20.6896C83.8535 21.5632 81.9501 22 79.7342 22ZM76.6127 18.0476H79.5424C80.9061 18.0476 82.0531 17.8061 82.9835 17.3232C83.921 16.8331 84.6241 16.0767 85.0929 15.054C85.5687 14.0241 85.8066 12.696 85.8066 11.0696C85.8066 9.45739 85.5687 8.13991 85.0929 7.11719C84.6241 6.09446 83.9245 5.34162 82.9941 4.85866C82.0637 4.37571 80.9167 4.13423 79.5531 4.13423H76.6127V18.0476ZM93.826 22V0.181818H102.562C104.167 0.181818 105.506 0.419744 106.578 0.895596C107.651 1.37145 108.457 2.03196 108.996 2.87713C109.536 3.7152 109.806 4.68111 109.806 5.77486C109.806 6.62713 109.636 7.37642 109.295 8.02273C108.954 8.66193 108.485 9.1875 107.888 9.59943C107.299 10.0043 106.624 10.2919 105.864 10.4624V10.6754C106.695 10.7109 107.473 10.9453 108.197 11.3786C108.929 11.8118 109.522 12.419 109.977 13.2003C110.431 13.9744 110.658 14.8977 110.658 15.9702C110.658 17.1278 110.371 18.1612 109.795 19.0703C109.227 19.9723 108.386 20.6861 107.271 21.2116C106.156 21.7372 104.781 22 103.148 22H93.826ZM98.4389 18.2287H102.2C103.485 18.2287 104.423 17.9837 105.012 17.4936C105.602 16.9964 105.896 16.3359 105.896 15.5121C105.896 14.9084 105.751 14.3757 105.46 13.9141C105.168 13.4524 104.753 13.0902 104.213 12.8274C103.68 12.5646 103.045 12.4332 102.306 12.4332H98.4389V18.2287ZM98.4389 9.31179H101.859C102.491 9.31179 103.052 9.2017 103.542 8.98153C104.039 8.75426 104.43 8.43466 104.714 8.02273C105.005 7.6108 105.151 7.11719 105.151 6.5419C105.151 5.75355 104.87 5.1179 104.309 4.63494C103.755 4.15199 102.967 3.91051 101.944 3.91051H98.4389V9.31179Z" fill="black"/>
</svg>
