<svg width="245" height="187" viewBox="0 0 245 187" fill="none" xmlns="http://www.w3.org/2000/svg">
<path fill-rule="evenodd" clip-rule="evenodd" d="M117.962 49.0648L158.336 25.5592L117.962 2.05359V49.0648ZM117.962 2.05371L77.5882 25.5593L117.962 49.0649V2.05371Z" fill="#5AB9FF"/>
<path fill-rule="evenodd" clip-rule="evenodd" d="M117.962 49.0647L117.962 49.0647L77.5882 25.5591V72.5702L77.5881 72.5703L117.962 96.0759V49.0647Z" fill="#31A9FF"/>
<path fill-rule="evenodd" clip-rule="evenodd" d="M117.962 49.0647L117.962 49.0647L117.962 49.0647V96.0758L158.336 72.5702V25.5591L117.962 49.0647Z" fill="#0897FF"/>
<path fill-rule="evenodd" clip-rule="evenodd" d="M141.904 82.1241L162.896 69.9024L141.904 57.6807L141.904 57.6806V57.6807L120.911 69.9024L141.904 82.1242V82.1241Z" fill="#5AB9FF"/>
<path fill-rule="evenodd" clip-rule="evenodd" d="M141.904 82.1242L120.911 69.9025V94.346L120.911 94.346L141.904 106.568V82.1242L141.904 82.1242Z" fill="#31A9FF"/>
<path fill-rule="evenodd" clip-rule="evenodd" d="M162.896 94.346L141.904 106.568V82.1242L141.904 82.1242L162.896 69.9025V94.346L162.896 94.346Z" fill="#0C99FF"/>
<rect x="156.147" y="23.7831" width="3.08257" height="44.4368" rx="1.54128" fill="white"/>
<rect x="76.6165" y="23.7831" width="3.08257" height="48.8179" rx="1.54128" fill="white"/>
<rect x="161.079" y="68.2198" width="3.08257" height="26.2865" rx="1.54128" fill="white"/>
<rect width="3.27549" height="49.6013" rx="1.63775" transform="matrix(0.49327 -0.869876 0.863378 0.504558 115.244 2.87842)" fill="white"/>
<rect width="3.27549" height="50.9286" rx="1.63775" transform="matrix(0.49327 -0.869876 0.863378 0.504558 76 71.9258)" fill="white"/>
<rect width="3.27549" height="28.2827" rx="1.63775" transform="matrix(0.49327 -0.869876 0.863378 0.504558 118.02 93.2891)" fill="white"/>
<rect width="3.27549" height="9.13882" rx="1.63775" transform="matrix(0.49327 -0.869876 0.863378 0.504558 155.494 67.4575)" fill="white"/>
<rect width="3.27549" height="48.4987" rx="1.63775" transform="matrix(0.493308 0.869855 -0.863355 0.504597 118.022 0)" fill="white"/>
<rect width="3.27549" height="27.3235" rx="1.63775" transform="matrix(0.493308 0.869855 -0.863355 0.504597 163.354 90.9096)" fill="white"/>
<g filter="url(#filter0_d_188_264)">
<path fill-rule="evenodd" clip-rule="evenodd" d="M117.962 41.9468C116.014 41.9468 114.434 43.5262 114.434 45.4744V94.0745C114.434 96.0228 116.014 97.6022 117.962 97.6022C119.91 97.6022 121.49 96.0228 121.49 94.0745V74.1104L140.03 84.9454C141.731 85.9396 143.898 85.3561 144.87 83.642C145.842 81.9279 145.251 79.7323 143.55 78.7381L127.471 69.3418L142.391 60.6222C144.092 59.6278 144.683 57.4322 143.711 55.7182C142.739 54.0041 140.572 53.4206 138.87 54.415L121.49 64.5733V45.4744C121.49 43.5262 119.91 41.9468 117.962 41.9468Z" fill="white"/>
</g>
<path d="M4.10866 171V123.727H14.1033V144.571H14.7266L31.7383 123.727H43.718L26.1754 144.894L43.9258 171H31.9691L19.0199 151.565L14.1033 157.566V171H4.10866ZM62.2936 171.692C58.6466 171.692 55.5074 170.954 52.876 169.477C50.26 167.984 48.2441 165.876 46.8284 163.152C45.4127 160.413 44.7048 157.174 44.7048 153.434C44.7048 149.787 45.4127 146.587 46.8284 143.832C48.2441 141.078 50.2369 138.931 52.8067 137.392C55.392 135.853 58.4234 135.084 61.9012 135.084C64.2402 135.084 66.4176 135.461 68.4335 136.215C70.4648 136.953 72.2344 138.069 73.7425 139.562C75.2659 141.054 76.4508 142.932 77.2971 145.194C78.1435 147.441 78.5667 150.072 78.5667 153.088V155.789H48.6288V149.695H69.3106C69.3106 148.279 69.0029 147.025 68.3873 145.933C67.7718 144.84 66.9178 143.986 65.8252 143.37C64.748 142.739 63.4939 142.424 62.0628 142.424C60.5701 142.424 59.2467 142.77 58.0926 143.463C56.9539 144.14 56.0613 145.055 55.415 146.21C54.7687 147.348 54.4379 148.618 54.4225 150.018V155.812C54.4225 157.566 54.7457 159.082 55.392 160.359C56.0537 161.636 56.9846 162.621 58.1849 163.314C59.3852 164.006 60.8086 164.352 62.4552 164.352C63.5477 164.352 64.548 164.198 65.4559 163.891C66.3638 163.583 67.1409 163.121 67.7872 162.506C68.4335 161.89 68.9259 161.136 69.2645 160.244L78.3589 160.844C77.8973 163.029 76.9509 164.937 75.5198 166.568C74.1041 168.184 72.2729 169.446 70.0262 170.354C67.7949 171.246 65.2174 171.692 62.2936 171.692ZM114.483 145.656L105.481 146.21C105.327 145.44 104.996 144.748 104.488 144.132C103.98 143.501 103.311 143.001 102.48 142.632C101.664 142.247 100.687 142.055 99.5486 142.055C98.0251 142.055 96.7402 142.378 95.6938 143.024C94.6474 143.655 94.1242 144.501 94.1242 145.563C94.1242 146.41 94.4627 147.125 95.1398 147.71C95.8169 148.295 96.9787 148.764 98.6253 149.118L105.042 150.411C108.489 151.118 111.059 152.257 112.752 153.827C114.444 155.396 115.291 157.458 115.291 160.013C115.291 162.336 114.606 164.375 113.236 166.13C111.882 167.884 110.02 169.253 107.65 170.238C105.296 171.208 102.58 171.692 99.5024 171.692C94.809 171.692 91.0696 170.715 88.2844 168.761C85.5145 166.791 83.891 164.114 83.414 160.728L93.0855 160.221C93.3779 161.652 94.0857 162.744 95.2091 163.498C96.3324 164.237 97.7712 164.606 99.5255 164.606C101.249 164.606 102.634 164.275 103.68 163.614C104.742 162.937 105.281 162.067 105.296 161.005C105.281 160.113 104.904 159.382 104.165 158.812C103.426 158.228 102.288 157.781 100.749 157.474L94.6089 156.25C91.1466 155.558 88.569 154.358 86.8763 152.65C85.199 150.941 84.3604 148.764 84.3604 146.117C84.3604 143.84 84.9759 141.878 86.2069 140.231C87.4534 138.585 89.2 137.315 91.4466 136.423C93.7087 135.53 96.3555 135.084 99.387 135.084C103.865 135.084 107.389 136.03 109.959 137.923C112.544 139.816 114.052 142.393 114.483 145.656ZM150.982 145.656L141.98 146.21C141.826 145.44 141.495 144.748 140.987 144.132C140.479 143.501 139.81 143.001 138.979 142.632C138.163 142.247 137.186 142.055 136.048 142.055C134.524 142.055 133.239 142.378 132.193 143.024C131.146 143.655 130.623 144.501 130.623 145.563C130.623 146.41 130.962 147.125 131.639 147.71C132.316 148.295 133.478 148.764 135.124 149.118L141.541 150.411C144.988 151.118 147.558 152.257 149.251 153.827C150.943 155.396 151.79 157.458 151.79 160.013C151.79 162.336 151.105 164.375 149.735 166.13C148.381 167.884 146.519 169.253 144.15 170.238C141.795 171.208 139.079 171.692 136.001 171.692C131.308 171.692 127.569 170.715 124.783 168.761C122.013 166.791 120.39 164.114 119.913 160.728L129.585 160.221C129.877 161.652 130.585 162.744 131.708 163.498C132.831 164.237 134.27 164.606 136.025 164.606C137.748 164.606 139.133 164.275 140.179 163.614C141.241 162.937 141.78 162.067 141.795 161.005C141.78 160.113 141.403 159.382 140.664 158.812C139.925 158.228 138.787 157.781 137.248 157.474L131.108 156.25C127.646 155.558 125.068 154.358 123.375 152.65C121.698 150.941 120.859 148.764 120.859 146.117C120.859 143.84 121.475 141.878 122.706 140.231C123.952 138.585 125.699 137.315 127.946 136.423C130.208 135.53 132.855 135.084 135.886 135.084C140.364 135.084 143.888 136.03 146.458 137.923C149.043 139.816 150.551 142.393 150.982 145.656ZM174.924 171H158.166V123.727H175.063C179.818 123.727 183.911 124.674 187.342 126.566C190.774 128.444 193.413 131.144 195.26 134.668C197.122 138.192 198.053 142.409 198.053 147.317C198.053 152.242 197.122 156.473 195.26 160.013C193.413 163.552 190.759 166.268 187.296 168.161C183.849 170.054 179.725 171 174.924 171ZM168.161 162.436H174.509C177.463 162.436 179.948 161.913 181.964 160.867C183.995 159.805 185.519 158.166 186.535 155.95C187.566 153.719 188.081 150.841 188.081 147.317C188.081 143.824 187.566 140.97 186.535 138.754C185.519 136.538 184.003 134.907 181.987 133.86C179.971 132.814 177.486 132.291 174.532 132.291H168.161V162.436ZM205.456 171V123.727H224.384C227.862 123.727 230.762 124.243 233.086 125.274C235.41 126.305 237.156 127.736 238.326 129.567C239.495 131.383 240.08 133.476 240.08 135.846C240.08 137.692 239.711 139.316 238.972 140.716C238.233 142.101 237.218 143.24 235.925 144.132C234.648 145.009 233.186 145.632 231.539 146.002V146.463C233.34 146.54 235.025 147.048 236.594 147.987C238.179 148.926 239.464 150.241 240.449 151.934C241.434 153.611 241.926 155.612 241.926 157.935C241.926 160.444 241.303 162.683 240.057 164.652C238.826 166.607 237.002 168.153 234.586 169.292C232.17 170.431 229.193 171 225.653 171H205.456ZM215.451 162.829H223.599C226.384 162.829 228.416 162.298 229.693 161.236C230.97 160.159 231.609 158.728 231.609 156.943C231.609 155.635 231.293 154.481 230.662 153.48C230.031 152.48 229.131 151.695 227.962 151.126C226.808 150.557 225.43 150.272 223.83 150.272H215.451V162.829ZM215.451 143.509H222.86C224.23 143.509 225.446 143.27 226.507 142.793C227.585 142.301 228.431 141.608 229.047 140.716C229.677 139.823 229.993 138.754 229.993 137.507C229.993 135.799 229.385 134.422 228.169 133.376C226.969 132.329 225.261 131.806 223.045 131.806H215.451V143.509Z" fill="black"/>
<defs>
<filter id="filter0_d_188_264" x="114.434" y="41.9468" width="80.904" height="105.655" filterUnits="userSpaceOnUse" color-interpolation-filters="sRGB">
<feFlood flood-opacity="0" result="BackgroundImageFix"/>
<feColorMatrix in="SourceAlpha" type="matrix" values="0 0 0 0 0 0 0 0 0 0 0 0 0 0 0 0 0 0 127 0" result="hardAlpha"/>
<feOffset dx="25" dy="25"/>
<feGaussianBlur stdDeviation="12.5"/>
<feComposite in2="hardAlpha" operator="out"/>
<feColorMatrix type="matrix" values="0 0 0 0 0 0 0 0 0 0 0 0 0 0 0 0 0 0 0.05 0"/>
<feBlend mode="normal" in2="BackgroundImageFix" result="effect1_dropShadow_188_264"/>
<feBlend mode="normal" in="SourceGraphic" in2="effect1_dropShadow_188_264" result="shape"/>
</filter>
</defs>
</svg>
