<svg width="1232" height="242" viewBox="0 0 1232 242" fill="none" xmlns="http://www.w3.org/2000/svg">
<path d="M12.8842 194V48.5455H43.6371V112.679H45.5547L97.8984 48.5455H134.759L80.782 113.673L135.398 194H98.6087L58.7649 134.199L43.6371 152.665V194H12.8842ZM287.915 196.131C276.693 196.131 267.034 193.858 258.938 189.312C250.888 184.72 244.686 178.233 240.33 169.852C235.973 161.424 233.795 151.457 233.795 139.952C233.795 128.73 235.973 118.882 240.33 110.406C244.686 101.931 250.817 95.3258 258.724 90.5909C266.679 85.8561 276.007 83.4886 286.707 83.4886C293.904 83.4886 300.604 84.6487 306.807 86.9688C313.057 89.2415 318.502 92.6742 323.142 97.267C327.83 101.86 331.475 107.636 334.08 114.597C336.684 121.509 337.986 129.606 337.986 138.886V147.196H245.869V128.446H309.506C309.506 124.09 308.559 120.231 306.665 116.869C304.771 113.508 302.143 110.88 298.781 108.986C295.467 107.045 291.608 106.074 287.205 106.074C282.612 106.074 278.54 107.139 274.989 109.27C271.485 111.353 268.739 114.17 266.75 117.722C264.761 121.225 263.743 125.132 263.696 129.44V147.267C263.696 152.665 264.69 157.329 266.679 161.259C268.715 165.188 271.58 168.219 275.273 170.349C278.966 172.48 283.346 173.545 288.412 173.545C291.774 173.545 294.851 173.072 297.645 172.125C300.438 171.178 302.83 169.758 304.818 167.864C306.807 165.97 308.322 163.65 309.364 160.903L337.347 162.75C335.926 169.473 333.014 175.345 328.611 180.364C324.255 185.335 318.62 189.218 311.707 192.011C304.842 194.758 296.911 196.131 287.915 196.131ZM544.497 116.017L516.798 117.722C516.325 115.354 515.307 113.223 513.744 111.33C512.182 109.388 510.122 107.849 507.565 106.713C505.056 105.529 502.049 104.938 498.545 104.938C493.858 104.938 489.904 105.932 486.685 107.92C483.465 109.862 481.855 112.466 481.855 115.733C481.855 118.337 482.897 120.539 484.98 122.338C487.063 124.137 490.638 125.581 495.705 126.67L515.449 130.648C526.055 132.826 533.962 136.33 539.17 141.159C544.379 145.989 546.983 152.333 546.983 160.193C546.983 167.343 544.876 173.616 540.662 179.014C536.495 184.412 530.766 188.626 523.474 191.656C516.23 194.639 507.873 196.131 498.403 196.131C483.962 196.131 472.456 193.124 463.886 187.111C455.364 181.05 450.368 172.812 448.901 162.395L478.659 160.832C479.559 165.236 481.737 168.598 485.193 170.918C488.65 173.19 493.077 174.327 498.474 174.327C503.777 174.327 508.039 173.309 511.259 171.273C514.526 169.189 516.183 166.514 516.23 163.247C516.183 160.501 515.023 158.252 512.75 156.5C510.477 154.701 506.973 153.328 502.239 152.381L483.347 148.616C472.693 146.486 464.762 142.793 459.554 137.537C454.393 132.281 451.812 125.581 451.812 117.438C451.812 110.43 453.706 104.393 457.494 99.3267C461.33 94.2604 466.704 90.3542 473.616 87.608C480.577 84.8617 488.721 83.4886 498.048 83.4886C511.827 83.4886 522.67 86.4006 530.577 92.2244C538.531 98.0483 543.171 105.979 544.497 116.017ZM752.802 116.017L725.103 117.722C724.629 115.354 723.612 113.223 722.049 111.33C720.487 109.388 718.427 107.849 715.87 106.713C713.361 105.529 710.354 104.938 706.85 104.938C702.163 104.938 698.209 105.932 694.989 107.92C691.77 109.862 690.16 112.466 690.16 115.733C690.16 118.337 691.201 120.539 693.285 122.338C695.368 124.137 698.943 125.581 704.009 126.67L723.754 130.648C734.36 132.826 742.267 136.33 747.475 141.159C752.683 145.989 755.288 152.333 755.288 160.193C755.288 167.343 753.181 173.616 748.967 179.014C744.8 184.412 739.071 188.626 731.779 191.656C724.535 194.639 716.178 196.131 706.708 196.131C692.267 196.131 680.761 193.124 672.191 187.111C663.668 181.05 658.673 172.812 657.205 162.395L686.964 160.832C687.863 165.236 690.041 168.598 693.498 170.918C696.954 173.19 701.381 174.327 706.779 174.327C712.082 174.327 716.344 173.309 719.563 171.273C722.83 169.189 724.487 166.514 724.535 163.247C724.487 160.501 723.327 158.252 721.055 156.5C718.782 154.701 715.278 153.328 710.543 152.381L691.651 148.616C680.998 146.486 673.067 142.793 667.859 137.537C662.698 132.281 660.117 125.581 660.117 117.438C660.117 110.43 662.011 104.393 665.799 99.3267C669.634 94.2604 675.008 90.3542 681.921 87.608C688.881 84.8617 697.025 83.4886 706.353 83.4886C720.131 83.4886 730.974 86.4006 738.881 92.2244C746.836 98.0483 751.476 105.979 752.802 116.017ZM922.47 194H870.908V48.5455H922.896C937.527 48.5455 950.122 51.4574 960.68 57.2812C971.239 63.0578 979.359 71.3674 985.041 82.2102C990.77 93.053 993.635 106.027 993.635 121.131C993.635 136.282 990.77 149.303 985.041 160.193C979.359 171.083 971.192 179.44 960.538 185.264C949.932 191.088 937.243 194 922.47 194ZM901.661 167.651H921.192C930.283 167.651 937.929 166.041 944.132 162.821C950.382 159.554 955.07 154.511 958.195 147.693C961.367 140.828 962.953 131.973 962.953 121.131C962.953 110.383 961.367 101.599 958.195 94.7812C955.07 87.9631 950.406 82.9441 944.203 79.7244C938 76.5047 930.354 74.8949 921.263 74.8949H901.661V167.651ZM1112.42 194V48.5455H1170.65C1181.35 48.5455 1190.28 50.1316 1197.43 53.304C1204.58 56.4763 1209.95 60.8797 1213.55 66.5142C1217.15 72.1013 1218.95 78.5407 1218.95 85.8324C1218.95 91.5142 1217.81 96.5095 1215.54 100.818C1213.27 105.08 1210.14 108.583 1206.17 111.33C1202.24 114.028 1197.74 115.946 1192.67 117.082V118.503C1198.21 118.74 1203.4 120.302 1208.23 123.19C1213.1 126.079 1217.06 130.127 1220.09 135.335C1223.12 140.496 1224.63 146.652 1224.63 153.801C1224.63 161.519 1222.71 168.408 1218.88 174.469C1215.09 180.482 1209.48 185.241 1202.05 188.744C1194.61 192.248 1185.45 194 1174.56 194H1112.42ZM1143.17 168.858H1168.24C1176.81 168.858 1183.06 167.224 1186.99 163.957C1190.92 160.643 1192.88 156.24 1192.88 150.747C1192.88 146.723 1191.91 143.171 1189.97 140.094C1188.03 137.016 1185.26 134.601 1181.66 132.849C1178.11 131.098 1173.87 130.222 1168.95 130.222H1143.17V168.858ZM1143.17 109.412H1165.97C1170.18 109.412 1173.92 108.678 1177.19 107.21C1180.5 105.695 1183.11 103.564 1185 100.818C1186.94 98.072 1187.91 94.7812 1187.91 90.946C1187.91 85.6903 1186.04 81.4527 1182.3 78.233C1178.61 75.0133 1173.35 73.4034 1166.53 73.4034H1143.17V109.412Z" fill="black"/>
<path d="M12.8842 194V48.5455H43.6371V112.679H45.5547L97.8984 48.5455H134.759L80.782 113.673L135.398 194H98.6087L58.7649 134.199L43.6371 152.665V194H12.8842ZM287.915 196.131C276.693 196.131 267.034 193.858 258.938 189.312C250.888 184.72 244.686 178.233 240.33 169.852C235.973 161.424 233.795 151.457 233.795 139.952C233.795 128.73 235.973 118.882 240.33 110.406C244.686 101.931 250.817 95.3258 258.724 90.5909C266.679 85.8561 276.007 83.4886 286.707 83.4886C293.904 83.4886 300.604 84.6487 306.807 86.9688C313.057 89.2415 318.502 92.6742 323.142 97.267C327.83 101.86 331.475 107.636 334.08 114.597C336.684 121.509 337.986 129.606 337.986 138.886V147.196H245.869V128.446H309.506C309.506 124.09 308.559 120.231 306.665 116.869C304.771 113.508 302.143 110.88 298.781 108.986C295.467 107.045 291.608 106.074 287.205 106.074C282.612 106.074 278.54 107.139 274.989 109.27C271.485 111.353 268.739 114.17 266.75 117.722C264.761 121.225 263.743 125.132 263.696 129.44V147.267C263.696 152.665 264.69 157.329 266.679 161.259C268.715 165.188 271.58 168.219 275.273 170.349C278.966 172.48 283.346 173.545 288.412 173.545C291.774 173.545 294.851 173.072 297.645 172.125C300.438 171.178 302.83 169.758 304.818 167.864C306.807 165.97 308.322 163.65 309.364 160.903L337.347 162.75C335.926 169.473 333.014 175.345 328.611 180.364C324.255 185.335 318.62 189.218 311.707 192.011C304.842 194.758 296.911 196.131 287.915 196.131ZM544.497 116.017L516.798 117.722C516.325 115.354 515.307 113.223 513.744 111.33C512.182 109.388 510.122 107.849 507.565 106.713C505.056 105.529 502.049 104.938 498.545 104.938C493.858 104.938 489.904 105.932 486.685 107.92C483.465 109.862 481.855 112.466 481.855 115.733C481.855 118.337 482.897 120.539 484.98 122.338C487.063 124.137 490.638 125.581 495.705 126.67L515.449 130.648C526.055 132.826 533.962 136.33 539.17 141.159C544.379 145.989 546.983 152.333 546.983 160.193C546.983 167.343 544.876 173.616 540.662 179.014C536.495 184.412 530.766 188.626 523.474 191.656C516.23 194.639 507.873 196.131 498.403 196.131C483.962 196.131 472.456 193.124 463.886 187.111C455.364 181.05 450.368 172.812 448.901 162.395L478.659 160.832C479.559 165.236 481.737 168.598 485.193 170.918C488.65 173.19 493.077 174.327 498.474 174.327C503.777 174.327 508.039 173.309 511.259 171.273C514.526 169.189 516.183 166.514 516.23 163.247C516.183 160.501 515.023 158.252 512.75 156.5C510.477 154.701 506.973 153.328 502.239 152.381L483.347 148.616C472.693 146.486 464.762 142.793 459.554 137.537C454.393 132.281 451.812 125.581 451.812 117.438C451.812 110.43 453.706 104.393 457.494 99.3267C461.33 94.2604 466.704 90.3542 473.616 87.608C480.577 84.8617 488.721 83.4886 498.048 83.4886C511.827 83.4886 522.67 86.4006 530.577 92.2244C538.531 98.0483 543.171 105.979 544.497 116.017ZM752.802 116.017L725.103 117.722C724.629 115.354 723.612 113.223 722.049 111.33C720.487 109.388 718.427 107.849 715.87 106.713C713.361 105.529 710.354 104.938 706.85 104.938C702.163 104.938 698.209 105.932 694.989 107.92C691.77 109.862 690.16 112.466 690.16 115.733C690.16 118.337 691.201 120.539 693.285 122.338C695.368 124.137 698.943 125.581 704.009 126.67L723.754 130.648C734.36 132.826 742.267 136.33 747.475 141.159C752.683 145.989 755.288 152.333 755.288 160.193C755.288 167.343 753.181 173.616 748.967 179.014C744.8 184.412 739.071 188.626 731.779 191.656C724.535 194.639 716.178 196.131 706.708 196.131C692.267 196.131 680.761 193.124 672.191 187.111C663.668 181.05 658.673 172.812 657.205 162.395L686.964 160.832C687.863 165.236 690.041 168.598 693.498 170.918C696.954 173.19 701.381 174.327 706.779 174.327C712.082 174.327 716.344 173.309 719.563 171.273C722.83 169.189 724.487 166.514 724.535 163.247C724.487 160.501 723.327 158.252 721.055 156.5C718.782 154.701 715.278 153.328 710.543 152.381L691.651 148.616C680.998 146.486 673.067 142.793 667.859 137.537C662.698 132.281 660.117 125.581 660.117 117.438C660.117 110.43 662.011 104.393 665.799 99.3267C669.634 94.2604 675.008 90.3542 681.921 87.608C688.881 84.8617 697.025 83.4886 706.353 83.4886C720.131 83.4886 730.974 86.4006 738.881 92.2244C746.836 98.0483 751.476 105.979 752.802 116.017ZM922.47 194H870.908V48.5455H922.896C937.527 48.5455 950.122 51.4574 960.68 57.2812C971.239 63.0578 979.359 71.3674 985.041 82.2102C990.77 93.053 993.635 106.027 993.635 121.131C993.635 136.282 990.77 149.303 985.041 160.193C979.359 171.083 971.192 179.44 960.538 185.264C949.932 191.088 937.243 194 922.47 194ZM901.661 167.651H921.192C930.283 167.651 937.929 166.041 944.132 162.821C950.382 159.554 955.07 154.511 958.195 147.693C961.367 140.828 962.953 131.973 962.953 121.131C962.953 110.383 961.367 101.599 958.195 94.7812C955.07 87.9631 950.406 82.9441 944.203 79.7244C938 76.5047 930.354 74.8949 921.263 74.8949H901.661V167.651ZM1112.42 194V48.5455H1170.65C1181.35 48.5455 1190.28 50.1316 1197.43 53.304C1204.58 56.4763 1209.95 60.8797 1213.55 66.5142C1217.15 72.1013 1218.95 78.5407 1218.95 85.8324C1218.95 91.5142 1217.81 96.5095 1215.54 100.818C1213.27 105.08 1210.14 108.583 1206.17 111.33C1202.24 114.028 1197.74 115.946 1192.67 117.082V118.503C1198.21 118.74 1203.4 120.302 1208.23 123.19C1213.1 126.079 1217.06 130.127 1220.09 135.335C1223.12 140.496 1224.63 146.652 1224.63 153.801C1224.63 161.519 1222.71 168.408 1218.88 174.469C1215.09 180.482 1209.48 185.241 1202.05 188.744C1194.61 192.248 1185.45 194 1174.56 194H1112.42ZM1143.17 168.858H1168.24C1176.81 168.858 1183.06 167.224 1186.99 163.957C1190.92 160.643 1192.88 156.24 1192.88 150.747C1192.88 146.723 1191.91 143.171 1189.97 140.094C1188.03 137.016 1185.26 134.601 1181.66 132.849C1178.11 131.098 1173.87 130.222 1168.95 130.222H1143.17V168.858ZM1143.17 109.412H1165.97C1170.18 109.412 1173.92 108.678 1177.19 107.21C1180.5 105.695 1183.11 103.564 1185 100.818C1186.94 98.072 1187.91 94.7812 1187.91 90.946C1187.91 85.6903 1186.04 81.4527 1182.3 78.233C1178.61 75.0133 1173.35 73.4034 1166.53 73.4034H1143.17V109.412Z" fill="black"/>
<path d="M12.8842 194V48.5455H43.6371V112.679H45.5547L97.8984 48.5455H134.759L80.782 113.673L135.398 194H98.6087L58.7649 134.199L43.6371 152.665V194H12.8842ZM287.915 196.131C276.693 196.131 267.034 193.858 258.938 189.312C250.888 184.72 244.686 178.233 240.33 169.852C235.973 161.424 233.795 151.457 233.795 139.952C233.795 128.73 235.973 118.882 240.33 110.406C244.686 101.931 250.817 95.3258 258.724 90.5909C266.679 85.8561 276.007 83.4886 286.707 83.4886C293.904 83.4886 300.604 84.6487 306.807 86.9688C313.057 89.2415 318.502 92.6742 323.142 97.267C327.83 101.86 331.475 107.636 334.08 114.597C336.684 121.509 337.986 129.606 337.986 138.886V147.196H245.869V128.446H309.506C309.506 124.09 308.559 120.231 306.665 116.869C304.771 113.508 302.143 110.88 298.781 108.986C295.467 107.045 291.608 106.074 287.205 106.074C282.612 106.074 278.54 107.139 274.989 109.27C271.485 111.353 268.739 114.17 266.75 117.722C264.761 121.225 263.743 125.132 263.696 129.44V147.267C263.696 152.665 264.69 157.329 266.679 161.259C268.715 165.188 271.58 168.219 275.273 170.349C278.966 172.48 283.346 173.545 288.412 173.545C291.774 173.545 294.851 173.072 297.645 172.125C300.438 171.178 302.83 169.758 304.818 167.864C306.807 165.97 308.322 163.65 309.364 160.903L337.347 162.75C335.926 169.473 333.014 175.345 328.611 180.364C324.255 185.335 318.62 189.218 311.707 192.011C304.842 194.758 296.911 196.131 287.915 196.131ZM544.497 116.017L516.798 117.722C516.325 115.354 515.307 113.223 513.744 111.33C512.182 109.388 510.122 107.849 507.565 106.713C505.056 105.529 502.049 104.938 498.545 104.938C493.858 104.938 489.904 105.932 486.685 107.92C483.465 109.862 481.855 112.466 481.855 115.733C481.855 118.337 482.897 120.539 484.98 122.338C487.063 124.137 490.638 125.581 495.705 126.67L515.449 130.648C526.055 132.826 533.962 136.33 539.17 141.159C544.379 145.989 546.983 152.333 546.983 160.193C546.983 167.343 544.876 173.616 540.662 179.014C536.495 184.412 530.766 188.626 523.474 191.656C516.23 194.639 507.873 196.131 498.403 196.131C483.962 196.131 472.456 193.124 463.886 187.111C455.364 181.05 450.368 172.812 448.901 162.395L478.659 160.832C479.559 165.236 481.737 168.598 485.193 170.918C488.65 173.19 493.077 174.327 498.474 174.327C503.777 174.327 508.039 173.309 511.259 171.273C514.526 169.189 516.183 166.514 516.23 163.247C516.183 160.501 515.023 158.252 512.75 156.5C510.477 154.701 506.973 153.328 502.239 152.381L483.347 148.616C472.693 146.486 464.762 142.793 459.554 137.537C454.393 132.281 451.812 125.581 451.812 117.438C451.812 110.43 453.706 104.393 457.494 99.3267C461.33 94.2604 466.704 90.3542 473.616 87.608C480.577 84.8617 488.721 83.4886 498.048 83.4886C511.827 83.4886 522.67 86.4006 530.577 92.2244C538.531 98.0483 543.171 105.979 544.497 116.017ZM752.802 116.017L725.103 117.722C724.629 115.354 723.612 113.223 722.049 111.33C720.487 109.388 718.427 107.849 715.87 106.713C713.361 105.529 710.354 104.938 706.85 104.938C702.163 104.938 698.209 105.932 694.989 107.92C691.77 109.862 690.16 112.466 690.16 115.733C690.16 118.337 691.201 120.539 693.285 122.338C695.368 124.137 698.943 125.581 704.009 126.67L723.754 130.648C734.36 132.826 742.267 136.33 747.475 141.159C752.683 145.989 755.288 152.333 755.288 160.193C755.288 167.343 753.181 173.616 748.967 179.014C744.8 184.412 739.071 188.626 731.779 191.656C724.535 194.639 716.178 196.131 706.708 196.131C692.267 196.131 680.761 193.124 672.191 187.111C663.668 181.05 658.673 172.812 657.205 162.395L686.964 160.832C687.863 165.236 690.041 168.598 693.498 170.918C696.954 173.19 701.381 174.327 706.779 174.327C712.082 174.327 716.344 173.309 719.563 171.273C722.83 169.189 724.487 166.514 724.535 163.247C724.487 160.501 723.327 158.252 721.055 156.5C718.782 154.701 715.278 153.328 710.543 152.381L691.651 148.616C680.998 146.486 673.067 142.793 667.859 137.537C662.698 132.281 660.117 125.581 660.117 117.438C660.117 110.43 662.011 104.393 665.799 99.3267C669.634 94.2604 675.008 90.3542 681.921 87.608C688.881 84.8617 697.025 83.4886 706.353 83.4886C720.131 83.4886 730.974 86.4006 738.881 92.2244C746.836 98.0483 751.476 105.979 752.802 116.017ZM922.47 194H870.908V48.5455H922.896C937.527 48.5455 950.122 51.4574 960.68 57.2812C971.239 63.0578 979.359 71.3674 985.041 82.2102C990.77 93.053 993.635 106.027 993.635 121.131C993.635 136.282 990.77 149.303 985.041 160.193C979.359 171.083 971.192 179.44 960.538 185.264C949.932 191.088 937.243 194 922.47 194ZM901.661 167.651H921.192C930.283 167.651 937.929 166.041 944.132 162.821C950.382 159.554 955.07 154.511 958.195 147.693C961.367 140.828 962.953 131.973 962.953 121.131C962.953 110.383 961.367 101.599 958.195 94.7812C955.07 87.9631 950.406 82.9441 944.203 79.7244C938 76.5047 930.354 74.8949 921.263 74.8949H901.661V167.651ZM1112.42 194V48.5455H1170.65C1181.35 48.5455 1190.28 50.1316 1197.43 53.304C1204.58 56.4763 1209.95 60.8797 1213.55 66.5142C1217.15 72.1013 1218.95 78.5407 1218.95 85.8324C1218.95 91.5142 1217.81 96.5095 1215.54 100.818C1213.27 105.08 1210.14 108.583 1206.17 111.33C1202.24 114.028 1197.74 115.946 1192.67 117.082V118.503C1198.21 118.74 1203.4 120.302 1208.23 123.19C1213.1 126.079 1217.06 130.127 1220.09 135.335C1223.12 140.496 1224.63 146.652 1224.63 153.801C1224.63 161.519 1222.71 168.408 1218.88 174.469C1215.09 180.482 1209.48 185.241 1202.05 188.744C1194.61 192.248 1185.45 194 1174.56 194H1112.42ZM1143.17 168.858H1168.24C1176.81 168.858 1183.06 167.224 1186.99 163.957C1190.92 160.643 1192.88 156.24 1192.88 150.747C1192.88 146.723 1191.91 143.171 1189.97 140.094C1188.03 137.016 1185.26 134.601 1181.66 132.849C1178.11 131.098 1173.87 130.222 1168.95 130.222H1143.17V168.858ZM1143.17 109.412H1165.97C1170.18 109.412 1173.92 108.678 1177.19 107.21C1180.5 105.695 1183.11 103.564 1185 100.818C1186.94 98.072 1187.91 94.7812 1187.91 90.946C1187.91 85.6903 1186.04 81.4527 1182.3 78.233C1178.61 75.0133 1173.35 73.4034 1166.53 73.4034H1143.17V109.412Z" fill="#F1F1F2"/>
<path d="M145.739 194.373C143.808 194.373 142.138 193.963 140.73 193.142C139.329 192.314 138.248 191.162 137.486 189.687C136.723 188.204 136.342 186.485 136.342 184.529C136.342 182.557 136.723 180.834 137.486 179.359C138.248 177.875 139.329 176.724 140.73 175.903C142.138 175.075 143.808 174.661 145.739 174.661C147.669 174.661 149.335 175.075 150.735 175.903C152.144 176.724 153.229 177.875 153.991 179.359C154.754 180.834 155.135 182.557 155.135 184.529C155.135 186.485 154.754 188.204 153.991 189.687C153.229 191.162 152.144 192.314 150.735 193.142C149.335 193.963 147.669 194.373 145.739 194.373ZM145.763 190.271C146.642 190.271 147.375 190.023 147.963 189.526C148.552 189.02 148.995 188.332 149.293 187.462C149.6 186.592 149.753 185.602 149.753 184.492C149.753 183.382 149.6 182.391 149.293 181.521C148.995 180.651 148.552 179.964 147.963 179.458C147.375 178.953 146.642 178.7 145.763 178.7C144.877 178.7 144.131 178.953 143.526 179.458C142.93 179.964 142.478 180.651 142.172 181.521C141.873 182.391 141.724 183.382 141.724 184.492C141.724 185.602 141.873 186.592 142.172 187.462C142.478 188.332 142.93 189.02 143.526 189.526C144.131 190.023 144.877 190.271 145.763 190.271ZM162.078 194V174.909H167.211V178.24H167.41C167.758 177.055 168.342 176.16 169.162 175.555C169.983 174.942 170.927 174.636 171.996 174.636C172.261 174.636 172.547 174.652 172.854 174.685C173.16 174.719 173.43 174.764 173.662 174.822V179.52C173.413 179.446 173.069 179.379 172.63 179.321C172.191 179.263 171.789 179.234 171.424 179.234C170.645 179.234 169.949 179.404 169.336 179.744C168.731 180.075 168.251 180.539 167.895 181.136C167.547 181.733 167.373 182.42 167.373 183.199V194H162.078ZM187.711 194.373C185.747 194.373 184.057 193.975 182.64 193.18C181.231 192.376 180.146 191.241 179.383 189.774C178.621 188.299 178.24 186.555 178.24 184.542C178.24 182.578 178.621 180.854 179.383 179.371C180.146 177.888 181.219 176.732 182.602 175.903C183.994 175.075 185.627 174.661 187.499 174.661C188.759 174.661 189.931 174.864 191.017 175.27C192.111 175.667 193.063 176.268 193.875 177.072C194.696 177.875 195.334 178.886 195.79 180.104C196.245 181.314 196.473 182.731 196.473 184.355V185.809H180.353V182.528H191.489C191.489 181.766 191.323 181.09 190.992 180.502C190.66 179.914 190.201 179.454 189.612 179.123C189.032 178.783 188.357 178.613 187.586 178.613C186.783 178.613 186.07 178.799 185.449 179.172C184.835 179.537 184.355 180.03 184.007 180.651C183.659 181.264 183.481 181.948 183.472 182.702V185.822C183.472 186.766 183.646 187.583 183.994 188.27C184.351 188.958 184.852 189.488 185.498 189.861C186.145 190.234 186.911 190.42 187.798 190.42C188.386 190.42 188.925 190.338 189.413 190.172C189.902 190.006 190.321 189.758 190.669 189.426C191.017 189.095 191.282 188.689 191.464 188.208L196.361 188.531C196.113 189.708 195.603 190.735 194.832 191.614C194.07 192.484 193.084 193.163 191.874 193.652C190.673 194.133 189.285 194.373 187.711 194.373ZM208.872 194.36C207.654 194.36 206.569 194.149 205.616 193.727C204.663 193.296 203.909 192.662 203.354 191.825C202.807 190.98 202.533 189.927 202.533 188.668C202.533 187.607 202.728 186.717 203.118 185.996C203.507 185.275 204.037 184.695 204.709 184.256C205.38 183.817 206.142 183.485 206.995 183.261C207.857 183.038 208.76 182.88 209.705 182.789C210.815 182.673 211.71 182.565 212.39 182.466C213.069 182.358 213.562 182.201 213.869 181.994C214.175 181.786 214.329 181.48 214.329 181.074V180.999C214.329 180.212 214.08 179.603 213.583 179.172C213.094 178.741 212.398 178.526 211.495 178.526C210.542 178.526 209.784 178.737 209.22 179.16C208.657 179.574 208.284 180.096 208.102 180.726L203.205 180.328C203.453 179.168 203.942 178.165 204.671 177.32C205.4 176.467 206.341 175.812 207.493 175.357C208.653 174.893 209.995 174.661 211.52 174.661C212.58 174.661 213.595 174.785 214.565 175.033C215.542 175.282 216.408 175.667 217.162 176.189C217.925 176.711 218.525 177.382 218.965 178.203C219.404 179.015 219.623 179.988 219.623 181.124V194H214.602V191.353H214.453C214.146 191.949 213.736 192.475 213.222 192.931C212.709 193.379 212.091 193.731 211.37 193.988C210.65 194.236 209.817 194.36 208.872 194.36ZM210.389 190.706C211.167 190.706 211.855 190.553 212.452 190.246C213.048 189.932 213.517 189.509 213.856 188.979C214.196 188.448 214.366 187.848 214.366 187.176V185.151C214.2 185.258 213.972 185.358 213.682 185.449C213.401 185.532 213.082 185.61 212.725 185.685C212.369 185.751 212.013 185.813 211.656 185.871C211.3 185.921 210.977 185.967 210.687 186.008C210.065 186.099 209.523 186.244 209.059 186.443C208.595 186.642 208.234 186.911 207.977 187.251C207.72 187.583 207.592 187.997 207.592 188.494C207.592 189.215 207.853 189.766 208.375 190.147C208.905 190.52 209.577 190.706 210.389 190.706Z" fill="#F1F1F2"/>
<path d="M547.113 201.159V174.909H552.333V178.116H552.569C552.801 177.602 553.137 177.08 553.576 176.55C554.023 176.011 554.603 175.564 555.316 175.207C556.037 174.843 556.932 174.661 558.001 174.661C559.393 174.661 560.677 175.025 561.854 175.754C563.03 176.475 563.971 177.565 564.675 179.023C565.379 180.473 565.732 182.292 565.732 184.479C565.732 186.609 565.388 188.407 564.7 189.874C564.02 191.332 563.092 192.438 561.916 193.192C560.748 193.938 559.438 194.311 557.988 194.311C556.961 194.311 556.087 194.141 555.366 193.801C554.653 193.461 554.069 193.035 553.613 192.521C553.158 191.999 552.81 191.473 552.569 190.942H552.408V201.159H547.113ZM552.296 184.455C552.296 185.59 552.453 186.58 552.768 187.425C553.083 188.27 553.539 188.929 554.135 189.401C554.732 189.865 555.457 190.097 556.31 190.097C557.172 190.097 557.901 189.861 558.498 189.389C559.094 188.908 559.546 188.245 559.853 187.4C560.167 186.547 560.325 185.565 560.325 184.455C560.325 183.353 560.172 182.383 559.865 181.546C559.558 180.709 559.107 180.055 558.51 179.582C557.914 179.11 557.18 178.874 556.31 178.874C555.449 178.874 554.719 179.102 554.123 179.558C553.535 180.013 553.083 180.66 552.768 181.496C552.453 182.333 552.296 183.319 552.296 184.455ZM581.462 194.373C579.498 194.373 577.808 193.975 576.391 193.18C574.982 192.376 573.897 191.241 573.134 189.774C572.372 188.299 571.991 186.555 571.991 184.542C571.991 182.578 572.372 180.854 573.134 179.371C573.897 177.888 574.97 176.732 576.353 175.903C577.745 175.075 579.378 174.661 581.25 174.661C582.51 174.661 583.682 174.864 584.768 175.27C585.862 175.667 586.814 176.268 587.626 177.072C588.447 177.875 589.085 178.886 589.54 180.104C589.996 181.314 590.224 182.731 590.224 184.355V185.809H574.104V182.528H585.24C585.24 181.766 585.074 181.09 584.743 180.502C584.411 179.914 583.952 179.454 583.363 179.123C582.783 178.783 582.108 178.613 581.337 178.613C580.534 178.613 579.821 178.799 579.2 179.172C578.586 179.537 578.106 180.03 577.758 180.651C577.41 181.264 577.232 181.948 577.223 182.702V185.822C577.223 186.766 577.397 187.583 577.745 188.27C578.102 188.958 578.603 189.488 579.249 189.861C579.896 190.234 580.662 190.42 581.549 190.42C582.137 190.42 582.676 190.338 583.164 190.172C583.653 190.006 584.072 189.758 584.42 189.426C584.768 189.095 585.033 188.689 585.215 188.208L590.112 188.531C589.864 189.708 589.354 190.735 588.583 191.614C587.821 192.484 586.835 193.163 585.625 193.652C584.424 194.133 583.036 194.373 581.462 194.373ZM605.88 194.373C603.916 194.373 602.225 193.975 600.809 193.18C599.4 192.376 598.315 191.241 597.552 189.774C596.79 188.299 596.409 186.555 596.409 184.542C596.409 182.578 596.79 180.854 597.552 179.371C598.315 177.888 599.388 176.732 600.771 175.903C602.163 175.075 603.796 174.661 605.668 174.661C606.928 174.661 608.1 174.864 609.186 175.27C610.279 175.667 611.232 176.268 612.044 177.072C612.865 177.875 613.503 178.886 613.958 180.104C614.414 181.314 614.642 182.731 614.642 184.355V185.809H598.522V182.528H609.658C609.658 181.766 609.492 181.09 609.161 180.502C608.829 179.914 608.37 179.454 607.781 179.123C607.201 178.783 606.526 178.613 605.755 178.613C604.952 178.613 604.239 178.799 603.618 179.172C603.004 179.537 602.524 180.03 602.176 180.651C601.828 181.264 601.65 181.948 601.641 182.702V185.822C601.641 186.766 601.815 187.583 602.163 188.27C602.52 188.958 603.021 189.488 603.667 189.861C604.314 190.234 605.08 190.42 605.967 190.42C606.555 190.42 607.094 190.338 607.582 190.172C608.071 190.006 608.49 189.758 608.838 189.426C609.186 189.095 609.451 188.689 609.633 188.208L614.53 188.531C614.282 189.708 613.772 190.735 613.001 191.614C612.239 192.484 611.253 193.163 610.043 193.652C608.842 194.133 607.454 194.373 605.88 194.373ZM628.632 194.311C627.182 194.311 625.869 193.938 624.692 193.192C623.524 192.438 622.596 191.332 621.908 189.874C621.229 188.407 620.889 186.609 620.889 184.479C620.889 182.292 621.241 180.473 621.945 179.023C622.65 177.565 623.586 176.475 624.754 175.754C625.931 175.025 627.219 174.661 628.62 174.661C629.689 174.661 630.579 174.843 631.292 175.207C632.013 175.564 632.593 176.011 633.032 176.55C633.479 177.08 633.819 177.602 634.051 178.116H634.213V168.545H639.495V194H634.275V190.942H634.051C633.803 191.473 633.45 191.999 632.995 192.521C632.547 193.035 631.963 193.461 631.242 193.801C630.53 194.141 629.66 194.311 628.632 194.311ZM630.31 190.097C631.163 190.097 631.884 189.865 632.473 189.401C633.069 188.929 633.525 188.27 633.84 187.425C634.163 186.58 634.325 185.59 634.325 184.455C634.325 183.319 634.167 182.333 633.852 181.496C633.537 180.66 633.082 180.013 632.485 179.558C631.888 179.102 631.163 178.874 630.31 178.874C629.44 178.874 628.707 179.11 628.11 179.582C627.513 180.055 627.062 180.709 626.755 181.546C626.449 182.383 626.295 183.353 626.295 184.455C626.295 185.565 626.449 186.547 626.755 187.4C627.07 188.245 627.522 188.908 628.11 189.389C628.707 189.861 629.44 190.097 630.31 190.097Z" fill="#F1F1F2"/>
</svg>
